<?xml version="1.0" encoding="UTF-8"?>
<svg xmlns="http://www.w3.org/2000/svg" width="371" height="260" viewBox="0 0 371 260" fill="none">
  <path d="M185.5 256.732C285.187 256.732 366 219.572 366 173.732C366 127.892 285.187 90.7319 185.5 90.7319C85.8126 90.7319 5 127.892 5 173.732C5 219.572 85.8126 256.732 185.5 256.732Z" fill="#D9E1EB"></path>
  <path opacity="0.4" d="M158.417 256.732C243.147 256.732 311.834 220.578 311.834 175.98C311.834 131.383 243.147 95.229 158.417 95.229C73.6872 95.229 5 131.383 5 175.98C5 220.578 73.6872 256.732 158.417 256.732Z" fill="white" fill-opacity="0.5"></path>
  <path d="M315.903 145.141L326.835 145.457L337.76 145.141C338.229 152.498 336.787 160.001 334.806 163.662C334.338 164.604 333.581 165.373 332.646 165.858C329.423 167.709 324.213 167.709 321.01 165.858C320.057 165.373 319.293 164.586 318.836 163.621C316.863 159.918 315.434 152.464 315.903 145.141Z" fill="white"></path>
  <path d="M319.133 140.674C314.848 143.138 314.827 147.137 319.078 149.622C323.329 152.106 330.252 152.086 334.537 149.622C338.823 147.158 338.837 143.159 334.586 140.674C330.334 138.189 323.412 138.21 319.133 140.674Z" fill="#EBEBEB"></path>
  <path d="M320.824 141.658C317.484 143.578 317.47 146.696 320.783 148.623C324.095 150.551 329.499 150.544 332.84 148.623C336.18 146.703 336.201 143.578 332.881 141.658C329.561 139.738 324.164 139.731 320.824 141.658Z" fill="#E0E0E0"></path>
  <g opacity="0.15">
    <path d="M320.825 141.658C317.485 143.578 317.471 146.696 320.784 148.623C324.096 150.551 329.5 150.544 332.841 148.623C336.181 146.703 336.202 143.578 332.882 141.658C329.562 139.738 324.165 139.731 320.825 141.658Z" fill="black"></path>
  </g>
  <path d="M308.864 98.6348C333.495 106.681 333.709 123.11 328.188 134.81C326.808 137.178 322.557 138.444 318.864 123.894L325.29 124.727L317.767 120.948L315.814 115.112L322.094 115.58L314.116 112.228C312.652 107.592 310.898 103.052 308.864 98.6348V98.6348Z" fill="#0048B4"></path>
  <path d="M315.835 102.744C328.817 112.572 329.99 123.846 326.325 135.608C327.623 125.25 329.024 114.754 315.835 102.744Z" fill="white"></path>
  <path d="M350.577 115.325C326.305 118.732 323.358 134.025 326.581 145.816C327.492 148.252 331.225 150.138 337.078 137.198L330.922 136.896L338.575 134.597L341.336 129.49L335.408 128.877L343.393 127.088C345.544 123.024 347.943 119.096 350.577 115.325V115.325Z" fill="#0A68E2"></path>
  <path d="M343.406 117.996C329.672 125.002 326.704 135.299 328.16 146.903C328.678 137.006 329.12 127.019 343.406 117.996Z" fill="white"></path>
  <path d="M301.763 121.044C324.02 121.409 328.388 134.81 326.815 145.822C326.27 148.121 323.116 150.234 316.38 139.228L321.901 138.265L314.744 137.047L311.652 132.752L316.925 131.541L309.527 130.818C307.141 127.405 304.548 124.141 301.763 121.044V121.044Z" fill="#1472FF"></path>
  <path d="M308.526 122.655C321.687 127.432 325.518 136.386 325.504 146.972C323.91 138.155 322.419 129.208 308.526 122.655Z" fill="white"></path>
  <path d="M107.473 188.166V193.202C107.491 193.424 107.593 193.632 107.758 193.783C107.923 193.934 108.138 194.018 108.362 194.018C108.586 194.018 108.802 193.934 108.966 193.783C109.131 193.632 109.233 193.424 109.252 193.202V188.166H107.473Z" fill="#A3A8B0"></path>
  <path d="M109.24 164.236C109.25 164.113 109.235 163.99 109.195 163.873C109.155 163.757 109.091 163.65 109.008 163.559C108.924 163.468 108.823 163.396 108.709 163.347C108.596 163.297 108.474 163.271 108.351 163.271C108.227 163.271 108.105 163.297 107.992 163.347C107.879 163.396 107.777 163.468 107.694 163.559C107.61 163.65 107.546 163.757 107.506 163.873C107.466 163.99 107.451 164.113 107.461 164.236V188.166H109.24V164.236Z" fill="#AEB3BB"></path>
  <path d="M111.398 162.536C111.312 162.458 111.211 162.398 111.101 162.359C110.991 162.32 110.875 162.303 110.758 162.308C110.523 162.32 110.302 162.425 110.144 162.599C109.986 162.773 109.903 163.003 109.915 163.237C109.927 163.472 110.032 163.692 110.206 163.85L126.161 178.218L127.41 176.973L111.398 162.536Z" fill="#AEB3BB"></path>
  <path d="M130.082 179.552L127.248 177L126 178.245L128.903 180.853C128.986 180.931 129.085 180.991 129.192 181.031C129.299 181.07 129.413 181.088 129.527 181.084C129.705 181.083 129.88 181.029 130.026 180.927C130.173 180.826 130.286 180.683 130.35 180.517C130.415 180.351 130.427 180.169 130.386 179.996C130.344 179.823 130.252 179.666 130.12 179.546L130.082 179.552Z" fill="#A3A8B0"></path>
  <path d="M86.4733 179.519C86.3412 179.639 86.2486 179.796 86.2075 179.969C86.1663 180.142 86.1786 180.324 86.2427 180.49C86.3068 180.656 86.4197 180.799 86.5666 180.901C86.7136 181.002 86.8877 181.056 87.0663 181.057C87.1804 181.061 87.2943 181.043 87.4014 181.004C87.5085 180.964 87.6067 180.904 87.6905 180.827L90.5931 178.218L89.3447 176.973L86.4733 179.519Z" fill="#4A93F3"></path>
  <path d="M106.58 162.599C106.423 162.426 106.203 162.323 105.969 162.311C105.735 162.299 105.506 162.38 105.332 162.537L89.3145 176.967L90.5629 178.212L106.518 163.844C106.691 163.687 106.795 163.468 106.807 163.234C106.818 163.001 106.737 162.773 106.58 162.599V162.599Z" fill="#263238"></path>
  <path d="M113.608 162.014H103.134V165.027C103.134 165.805 103.658 166.577 104.682 167.162C105.825 167.744 107.09 168.048 108.374 168.048C109.658 168.048 110.923 167.744 112.066 167.162C113.084 166.577 113.589 165.805 113.583 165.027L113.608 162.014Z" fill="#37474F"></path>
  <path d="M112.042 159.878C114.089 161.055 114.102 162.991 112.042 164.142C110.899 164.725 109.633 165.029 108.35 165.029C107.066 165.029 105.801 164.725 104.657 164.142C102.61 162.966 102.598 161.03 104.657 159.878C105.801 159.296 107.066 158.992 108.35 158.992C109.633 158.992 110.899 159.296 112.042 159.878Z" fill="#455A64"></path>
  <path d="M106.886 51.7024V161.69C106.894 161.823 106.939 161.951 107.015 162.061C107.09 162.17 107.195 162.257 107.316 162.312C107.64 162.478 107.998 162.564 108.362 162.564C108.726 162.564 109.084 162.478 109.408 162.312C109.531 162.26 109.637 162.173 109.713 162.063C109.789 161.953 109.833 161.823 109.838 161.69V51.7024H106.886Z" fill="#263238"></path>
  <path d="M60.0264 60.2933V154.954L155.85 99.78V4.70825L60.0264 60.2933Z" fill="#BEC4CC"></path>
  <path d="M63.5713 62.3289L152.298 10.865V97.7318L63.5713 148.822V62.3289Z" fill="#FAFAFA"></path>
  <path d="M89.2831 72.3152C89.3238 72.3152 89.3563 72.3152 89.3807 72.3152C89.3946 72.329 89.4054 72.3455 89.4124 72.3638C89.4195 72.382 89.4225 72.4015 89.4215 72.4211V72.8691C89.425 72.9206 89.425 72.9723 89.4215 73.0238C89.4215 73.0727 89.3807 73.146 89.3563 73.2437L88.1762 77.5526C88.1648 77.6004 88.1484 77.6468 88.1273 77.6911C88.1061 77.7354 88.0721 77.7723 88.0296 77.797L87.6064 78.0413C87.593 78.0533 87.5756 78.06 87.5576 78.06C87.5396 78.06 87.5222 78.0533 87.5087 78.0413C87.4933 78.0288 87.4814 78.0124 87.4743 77.9938C87.4671 77.9752 87.465 77.9551 87.468 77.9354C87.468 77.9354 87.468 77.8947 87.468 77.8458L88.6564 73.5288L87.0285 74.4492C87.014 74.4587 86.997 74.4637 86.9797 74.4637C86.9624 74.4637 86.9454 74.4587 86.9308 74.4492C86.9163 74.4342 86.9052 74.4163 86.8982 74.3966C86.8912 74.377 86.8884 74.356 86.8901 74.3352V73.8628C86.8933 73.8116 86.9072 73.7617 86.9308 73.7162C86.9496 73.6682 86.984 73.628 87.0285 73.6021L89.2831 72.3152Z" fill="#455A64"></path>
  <path d="M92.5961 72.1846V73.3901C92.5864 73.6639 92.5538 73.9364 92.4985 74.2047C92.4559 74.453 92.3792 74.6942 92.2706 74.9215C92.163 75.1494 92.0232 75.3606 91.8554 75.5487C91.6742 75.7488 91.4627 75.9192 91.2287 76.0537C91.0357 76.1724 90.819 76.2475 90.5939 76.2736C90.5182 76.2809 90.4418 76.2716 90.3701 76.2463C90.2984 76.221 90.2331 76.1802 90.1788 76.127C90.0601 76.0036 89.9808 75.8476 89.9509 75.679C89.8934 75.4581 89.8633 75.2311 89.8613 75.0029C89.8613 74.8319 89.8613 74.6364 89.8613 74.4246C89.8613 74.2128 89.8613 74.001 89.8613 73.83C89.865 73.5562 89.895 73.2835 89.9509 73.0155C89.9934 72.7645 90.0701 72.5206 90.1788 72.2905C90.3996 71.8069 90.767 71.4051 91.2287 71.1421C91.4167 71.0189 91.6318 70.9434 91.8554 70.9221C91.9311 70.9148 92.0075 70.9241 92.0792 70.9494C92.1509 70.9747 92.2163 71.0155 92.2706 71.0687C92.3918 71.1903 92.4716 71.3471 92.4985 71.5167C92.555 71.7352 92.5877 71.9591 92.5961 72.1846V72.1846ZM90.545 74.5386C90.5351 74.7681 90.5947 74.9952 90.716 75.1903C90.8218 75.3124 90.9846 75.3043 91.2287 75.1903C91.4541 75.0673 91.6318 74.8723 91.7334 74.6364C91.8395 74.3605 91.8973 74.0685 91.9043 73.773C91.9043 73.6019 91.9043 73.4064 91.9043 73.2028C91.9043 72.9992 91.9043 72.8037 91.9043 72.6408C91.9124 72.4089 91.853 72.1797 91.7334 71.981C91.6276 71.8588 91.4648 71.867 91.2287 71.981C91.0005 72.1066 90.8202 72.3042 90.716 72.543C90.6106 72.8163 90.5528 73.1055 90.545 73.3983C90.545 73.5775 90.545 73.7648 90.545 73.9766C90.545 74.1884 90.5369 74.3676 90.545 74.5386V74.5386Z" fill="#455A64"></path>
  <path d="M93.8487 69.6516C93.9462 69.5873 94.0581 69.5482 94.1743 69.5376C94.2569 69.5331 94.3389 69.5529 94.4103 69.5946C94.4734 69.6426 94.5214 69.7076 94.5487 69.782C94.5837 69.8702 94.603 69.964 94.6057 70.0589C94.6057 70.1729 94.6057 70.2951 94.6057 70.4336C94.6057 70.572 94.6057 70.6942 94.6057 70.8083C94.6026 70.9244 94.5835 71.0395 94.5487 71.1504C94.5147 71.2742 94.4684 71.3942 94.4103 71.5088C94.3446 71.6262 94.2654 71.7355 94.1743 71.8346C94.0823 71.9381 93.9719 72.0237 93.8487 72.0871C93.7503 72.1508 93.6392 72.1925 93.5232 72.2092C93.4433 72.2126 93.3642 72.1928 93.2953 72.1522C93.2278 72.1069 93.1765 72.0413 93.1488 71.9649C93.1166 71.8758 93.0974 71.7825 93.0918 71.688C93.0918 71.5739 93.0918 71.4517 93.0918 71.3133C93.0918 71.1748 93.0918 71.0526 93.0918 70.9386C93.0986 70.8228 93.1177 70.7082 93.1488 70.5965C93.182 70.4712 93.2312 70.3508 93.2953 70.2381C93.361 70.1227 93.4373 70.0136 93.5232 69.9123C93.6184 69.81 93.7281 69.7222 93.8487 69.6516V69.6516ZM95.8917 68.6335C95.9127 68.5856 95.9372 68.5393 95.9649 68.495C95.9942 68.4565 96.0301 68.4234 96.0708 68.3973L96.38 68.2262C96.3939 68.2191 96.4092 68.2153 96.4248 68.2153C96.4404 68.2153 96.4557 68.2191 96.4696 68.2262C96.4749 68.2391 96.4777 68.2529 96.4777 68.2669C96.4777 68.2809 96.4749 68.2948 96.4696 68.3077C96.4696 68.3077 96.4696 68.3077 96.4696 68.3077C96.4731 68.3238 96.4731 68.3404 96.4696 68.3565L93.9627 74.2211C93.9418 74.2665 93.9173 74.3101 93.8894 74.3515C93.8615 74.3942 93.822 74.4281 93.7755 74.4492L93.4743 74.6284C93.4605 74.6355 93.4452 74.6393 93.4296 74.6393C93.414 74.6393 93.3987 74.6355 93.3848 74.6284C93.3784 74.6158 93.375 74.6018 93.375 74.5877C93.375 74.5735 93.3784 74.5596 93.3848 74.5469V74.5469V74.4981L95.8917 68.6335ZM94.1173 71.0282C94.1223 70.9849 94.1223 70.9412 94.1173 70.8979V70.5313C94.123 70.4881 94.123 70.4443 94.1173 70.401C94.1212 70.3324 94.0977 70.2651 94.0522 70.2137C94.0522 70.1648 93.9464 70.2137 93.8487 70.2137C93.7592 70.2634 93.6879 70.3404 93.6453 70.4336C93.6103 70.5194 93.5883 70.61 93.5802 70.7024C93.5802 70.7024 93.5802 70.7757 93.5802 70.8327V71.1992C93.5802 71.2562 93.5802 71.297 93.5802 71.3214C93.5827 71.3915 93.6053 71.4593 93.6453 71.5169C93.686 71.5576 93.7511 71.5169 93.8487 71.5169C93.938 71.4707 94.0096 71.3962 94.0522 71.3051C94.094 71.2187 94.1163 71.1242 94.1173 71.0282V71.0282ZM96.0545 70.7594C96.1508 70.6928 96.2633 70.6534 96.38 70.6454C96.4599 70.642 96.539 70.6618 96.6079 70.7024C96.6737 70.7495 96.7245 70.8145 96.7544 70.8897C96.7859 70.979 96.8051 71.0722 96.8114 71.1667C96.8114 71.2807 96.8114 71.4029 96.8114 71.5413C96.8114 71.6798 96.8114 71.802 96.8114 71.9242C96.803 72.0397 96.784 72.1542 96.7544 72.2663C96.7212 72.3889 96.6719 72.5067 96.6079 72.6165C96.5422 72.732 96.4659 72.841 96.38 72.9423C96.2827 73.0423 96.1733 73.1298 96.0545 73.203C95.9553 73.2638 95.8443 73.3027 95.7289 73.317C95.6461 73.3254 95.5628 73.3053 95.4929 73.26C95.4298 73.212 95.3818 73.147 95.3545 73.0726C95.3223 72.9836 95.3031 72.8903 95.2975 72.7957C95.2975 72.6817 95.2975 72.5595 95.2975 72.4292C95.2975 72.2989 95.2975 72.1685 95.2975 72.0463C95.3043 71.9306 95.3234 71.8159 95.3545 71.7042C95.3885 71.5804 95.4349 71.4604 95.4929 71.3459C95.5587 71.2285 95.6379 71.1191 95.7289 71.02C95.8228 70.9163 95.9328 70.8283 96.0545 70.7594ZM96.3231 72.1359V71.5088C96.3194 71.4414 96.2968 71.3765 96.258 71.3214C96.2173 71.3214 96.1522 71.3214 96.0545 71.3214C95.9636 71.3655 95.8914 71.4406 95.851 71.5332C95.8123 71.6178 95.7901 71.709 95.7859 71.802C95.7807 71.8453 95.7807 71.889 95.7859 71.9323C95.7859 71.9893 95.7859 72.0545 95.7859 72.1197C95.7859 72.1848 95.7859 72.2418 95.7859 72.2988C95.7806 72.3394 95.7806 72.3805 95.7859 72.421C95.7846 72.4917 95.8076 72.5607 95.851 72.6165C95.851 72.6572 95.9568 72.6165 96.0545 72.6165C96.1418 72.5677 96.2126 72.494 96.258 72.4047C96.292 72.3186 96.3139 72.2281 96.3231 72.1359V72.1359Z" fill="#455A64"></path>
  <path d="M85.4901 64.6261C83.6056 67.5533 82.2604 70.7947 81.5182 74.1968C81.1757 75.776 80.9984 77.3865 80.9892 79.0025C80.9741 80.4183 81.1521 81.8296 81.5182 83.1973L84.2367 80.4523C83.9588 79.4446 83.8245 78.4025 83.8379 77.3571C83.8441 76.1625 83.9777 74.972 84.2367 73.8058C84.7837 71.2929 85.7761 68.8984 87.1668 66.7357C88.3518 64.7898 89.9737 63.1472 91.9039 61.9381V58.1343C89.2897 59.7685 87.0934 61.9916 85.4901 64.6261Z" fill="#E0E0E0"></path>
  <path d="M102.306 62.1987C101.59 59.6656 100.182 57.9388 98.3423 57.2138C96.5029 56.4889 94.3215 56.7496 91.9286 58.1343V61.9381C92.6139 61.4702 93.3973 61.1659 94.2186 61.0487C95.0398 60.9315 95.877 61.0045 96.6656 61.262C97.4076 61.6038 98.0591 62.1149 98.568 62.7543C99.0769 63.3937 99.4289 64.1436 99.5958 64.9437C99.8698 65.9523 100.004 66.9938 99.9946 68.0389C99.9853 69.2333 99.8516 70.4236 99.5958 71.5903C99.0487 74.1031 98.0564 76.4976 96.6656 78.6604C95.4783 80.6044 93.8568 82.2465 91.9286 83.4579C91.2434 83.9258 90.4599 84.2301 89.6387 84.3473C88.8174 84.4645 87.9802 84.3916 87.1916 84.134C86.4496 83.7922 85.7981 83.2811 85.2892 82.6417C84.7804 82.0023 84.4284 81.2525 84.2615 80.4523L81.543 83.1973C82.2674 85.7386 83.6673 87.4573 85.5149 88.1822C87.3625 88.9071 89.5275 88.6465 91.9286 87.2618C94.5437 85.6182 96.7397 83.3871 98.3423 80.7455C100.222 77.8253 101.564 74.5924 102.306 71.1993C102.655 69.621 102.835 68.01 102.843 66.3936C102.86 64.9771 102.679 63.5652 102.306 62.1987V62.1987Z" fill="#0A68E2"></path>
  <path d="M89.1693 111.95C89.0456 112.149 88.898 112.332 88.7298 112.495C88.565 112.657 88.382 112.799 88.1844 112.919C87.9919 113.031 87.7833 113.114 87.5659 113.163C87.4184 113.19 87.2663 113.176 87.1264 113.122C87.0119 113.074 86.9173 112.987 86.8577 112.878C86.8007 112.758 86.7649 112.628 86.752 112.495C86.7541 112.444 86.768 112.394 86.7926 112.349C86.8166 112.304 86.8499 112.265 86.8903 112.235L87.2891 112.007C87.3298 112.007 87.3542 112.007 87.3787 112.007C87.406 112.032 87.4281 112.062 87.4438 112.096C87.4662 112.135 87.4936 112.17 87.5252 112.202C87.5667 112.229 87.6142 112.246 87.6635 112.251C87.733 112.269 87.8057 112.269 87.8751 112.251C87.9837 112.215 88.0875 112.165 88.1844 112.104C88.3844 111.995 88.5548 111.838 88.6809 111.648C88.8066 111.481 88.8751 111.279 88.8763 111.07C88.8763 110.866 88.8112 110.76 88.6809 110.744C88.503 110.74 88.3286 110.794 88.1844 110.899L87.7612 111.143C87.7178 111.143 87.6852 111.143 87.6635 111.143C87.6492 111.13 87.6381 111.113 87.6311 111.095C87.624 111.077 87.6212 111.057 87.6228 111.037V110.516C87.6266 110.46 87.6404 110.405 87.6635 110.353C87.6847 110.303 87.7091 110.254 87.7368 110.206L88.4449 108.797L87.045 109.612C87.0015 109.612 86.969 109.612 86.9473 109.612C86.933 109.598 86.9219 109.582 86.9148 109.564C86.9078 109.545 86.9049 109.526 86.9066 109.506V109.025C86.9087 108.974 86.9226 108.924 86.9473 108.879C86.966 108.831 87.0005 108.791 87.045 108.765L89.267 107.478C89.267 107.478 89.3402 107.478 89.3646 107.478C89.3732 107.494 89.3777 107.512 89.3777 107.531C89.3777 107.549 89.3732 107.567 89.3646 107.584V108.072C89.3754 108.126 89.3754 108.182 89.3646 108.235C89.3352 108.284 89.3107 108.336 89.2914 108.39L88.5426 109.864C88.6732 109.805 88.8142 109.772 88.9577 109.767C89.0714 109.771 89.1816 109.807 89.2751 109.872C89.372 109.943 89.4434 110.043 89.4786 110.158C89.5311 110.315 89.5559 110.48 89.5518 110.646C89.5532 110.881 89.5175 111.115 89.446 111.339C89.3809 111.554 89.2878 111.759 89.1693 111.95V111.95Z" fill="#455A64"></path>
  <path d="M90.8136 111.257C90.6614 111.264 90.5125 111.212 90.3985 111.111C90.2845 110.984 90.2059 110.83 90.1706 110.663C90.1166 110.439 90.0866 110.209 90.0811 109.979C90.0811 109.816 90.0811 109.62 90.0811 109.4C90.0811 109.18 90.0811 108.985 90.0811 108.806C90.0881 108.532 90.118 108.26 90.1706 107.991C90.2157 107.738 90.2922 107.492 90.3985 107.258C90.5058 107.028 90.6456 106.814 90.8136 106.623C90.9939 106.418 91.2088 106.247 91.4484 106.118C91.5875 106.033 91.7384 105.97 91.8961 105.93V106.916C91.7903 106.843 91.6519 106.843 91.4484 106.965C91.2193 107.083 91.0402 107.28 90.9438 107.519C90.8309 107.793 90.7701 108.086 90.7647 108.382C90.7647 108.553 90.7647 108.749 90.7647 108.952C90.7647 109.156 90.7647 109.351 90.7647 109.522C90.7557 109.753 90.8183 109.981 90.9438 110.174C91.0415 110.296 91.2043 110.288 91.4484 110.174C91.636 110.065 91.7906 109.908 91.8961 109.718V110.687C91.7589 110.814 91.6089 110.926 91.4484 111.021C91.2582 111.149 91.0407 111.229 90.8136 111.257V111.257Z" fill="#455A64"></path>
  <path d="M91.9525 109.62C92.0578 109.347 92.1156 109.058 92.1234 108.765C92.1234 108.586 92.1234 108.398 92.1234 108.187C92.1234 107.975 92.1234 107.796 92.1234 107.625C92.1318 107.395 92.0724 107.169 91.9525 106.973C91.9525 106.973 91.9525 106.973 91.8955 106.973V105.987C91.955 105.98 92.0151 105.98 92.0746 105.987C92.1503 105.98 92.2267 105.989 92.2984 106.015C92.3701 106.04 92.4354 106.081 92.4897 106.134C92.608 106.259 92.6896 106.414 92.7257 106.582C92.7753 106.804 92.8052 107.03 92.8152 107.258V108.464C92.8039 108.737 92.774 109.009 92.7257 109.278C92.6779 109.526 92.5985 109.767 92.4897 109.995C92.3845 110.224 92.2445 110.436 92.0746 110.622C92.0176 110.687 91.9525 110.736 91.8955 110.793V109.702C91.8955 109.702 91.9362 109.702 91.9525 109.62Z" fill="#455A64"></path>
  <path d="M94.6301 104.611C94.5612 104.563 94.4778 104.54 94.394 104.546C94.281 104.559 94.1725 104.598 94.0766 104.66C93.9517 104.731 93.839 104.822 93.7429 104.928C93.6533 105.027 93.5767 105.136 93.515 105.254C93.4536 105.364 93.4071 105.482 93.3766 105.605C93.3447 105.716 93.3229 105.831 93.3115 105.947C93.3115 106.069 93.3115 106.199 93.3115 106.329C93.3115 106.46 93.3115 106.59 93.3115 106.704C93.3197 106.796 93.3416 106.887 93.3766 106.973C93.4012 107.049 93.4498 107.115 93.515 107.16C93.5805 107.209 93.6624 107.229 93.7429 107.217C93.862 107.208 93.9768 107.169 94.0766 107.103C94.1962 107.035 94.3035 106.947 94.394 106.843C94.4867 106.748 94.5661 106.641 94.6301 106.525C94.6902 106.411 94.7366 106.291 94.7684 106.167C94.8019 106.055 94.8211 105.94 94.8254 105.824C94.8254 105.702 94.8254 105.58 94.8254 105.442C94.8254 105.303 94.8254 105.189 94.8254 105.075C94.8248 104.98 94.8054 104.886 94.7684 104.798C94.7439 104.722 94.6953 104.657 94.6301 104.611V104.611ZM94.3452 105.906V106.036C94.3382 106.13 94.3133 106.221 94.2719 106.305C94.2319 106.395 94.1633 106.47 94.0766 106.517C93.9708 106.574 93.9057 106.582 93.8731 106.517C93.828 106.465 93.8021 106.398 93.7999 106.329C93.803 106.286 93.803 106.242 93.7999 106.199V105.833C93.8033 105.789 93.8033 105.746 93.7999 105.702C93.8069 105.609 93.8318 105.518 93.8731 105.433C93.9135 105.341 93.9857 105.266 94.0766 105.222C94.1661 105.165 94.2394 105.157 94.2719 105.222C94.3182 105.276 94.3441 105.345 94.3452 105.417V105.906V105.906Z" fill="#455A64"></path>
  <path d="M95.5176 107.055C95.5176 107.177 95.5176 107.307 95.5176 107.437C95.5176 107.568 95.5176 107.698 95.5176 107.812C95.5239 107.907 95.5431 108 95.5746 108.089C95.6043 108.162 95.6519 108.226 95.7129 108.276C95.7847 108.317 95.8665 108.337 95.949 108.333C96.0647 108.315 96.1755 108.274 96.2745 108.211C96.3966 108.143 96.5066 108.055 96.6001 107.951C96.6903 107.856 96.767 107.749 96.828 107.633C96.892 107.52 96.9413 107.4 96.9745 107.275C97.004 107.162 97.0231 107.048 97.0315 106.932C97.0315 106.81 97.0315 106.688 97.0315 106.55C97.0315 106.411 97.0315 106.297 97.0315 106.183C97.0267 106.088 97.0075 105.995 96.9745 105.906C96.9468 105.83 96.8955 105.764 96.828 105.719C96.7678 105.664 96.6898 105.632 96.6082 105.629C96.4918 105.639 96.3797 105.678 96.2827 105.743C96.1575 105.807 96.0466 105.896 95.9571 106.004C95.7775 106.194 95.6487 106.427 95.5827 106.68C95.5483 106.802 95.5265 106.928 95.5176 107.055V107.055ZM95.9978 107.152V106.973C95.9926 106.927 95.9926 106.881 95.9978 106.835C96.003 106.742 96.0251 106.651 96.0629 106.566C96.1055 106.475 96.1771 106.4 96.2664 106.354C96.364 106.297 96.4292 106.289 96.4699 106.354C96.5098 106.412 96.5324 106.48 96.535 106.55C96.535 106.55 96.535 106.615 96.535 106.672V107.038C96.535 107.103 96.535 107.144 96.535 107.169C96.5268 107.261 96.5048 107.352 96.4699 107.437C96.4272 107.531 96.3559 107.608 96.2664 107.657C96.1687 107.714 96.0954 107.722 96.0629 107.657C96.0207 107.604 95.9977 107.538 95.9978 107.47C95.9922 107.427 95.9922 107.383 95.9978 107.34V107.152Z" fill="#455A64"></path>
  <path d="M93.5971 109.506L96.1121 103.65C96.1314 103.601 96.1559 103.555 96.1854 103.511C96.2122 103.471 96.2485 103.437 96.2912 103.413L96.6005 103.234C96.6294 103.224 96.6611 103.224 96.69 103.234C96.6954 103.247 96.6981 103.261 96.6981 103.275C96.6981 103.289 96.6954 103.303 96.69 103.316C96.6939 103.329 96.6939 103.343 96.69 103.356C96.6935 103.373 96.6935 103.389 96.69 103.405L94.1669 109.245C94.1459 109.293 94.1214 109.34 94.0936 109.384C94.0657 109.427 94.0261 109.461 93.9796 109.482L93.6785 109.661C93.6378 109.661 93.6134 109.661 93.589 109.661C93.5646 109.661 93.589 109.661 93.589 109.588V109.547C93.5942 109.534 93.5969 109.52 93.5971 109.506V109.506Z" fill="#455A64"></path>
  <path d="M91.9037 97.0763L91.8955 97.0844V93.2806L91.9037 93.2725V97.0763Z" fill="#6CA4EE"></path>
  <path d="M99.9703 103.186C99.9785 102.141 99.8443 101.099 99.5715 100.091C99.4058 99.2909 99.0542 98.5416 98.5451 97.9033C98.036 97.2651 97.3838 96.7559 96.6413 96.417C95.8537 96.1558 95.0163 96.0802 94.1947 96.196C93.373 96.3119 92.5892 96.6161 91.9043 97.0849V93.2811C94.2972 91.8964 96.5192 91.652 98.318 92.3607C100.117 93.0693 101.574 94.8043 102.282 97.3456C102.655 98.7121 102.836 100.124 102.819 101.54C102.811 103.157 102.631 104.768 102.282 106.346L99.5715 106.737C99.8273 105.57 99.9609 104.38 99.9703 103.186V103.186Z" fill="#0A68E2"></path>
  <path d="M91.9037 118.596V122.4L91.8955 122.408V118.604L91.9037 118.596Z" fill="#6CA4EE"></path>
  <path d="M85.4902 99.7644C83.6069 102.692 82.2618 105.934 81.5183 109.335C81.1766 110.914 80.9993 112.525 80.9892 114.141C80.9737 115.557 81.1517 116.968 81.5183 118.336C82.2427 120.877 83.6426 122.604 85.4902 123.329C87.3378 124.054 89.5028 123.785 91.8958 122.408V118.604C91.2106 119.069 90.4283 119.371 89.6087 119.487C88.7891 119.602 87.9538 119.529 87.1669 119.272C86.4242 118.932 85.772 118.421 85.263 117.781C84.754 117.142 84.4024 116.391 84.2368 115.591C83.9589 114.583 83.8246 113.541 83.8379 112.495C83.8441 111.301 83.9778 110.11 84.2368 108.944C84.7853 106.432 85.7776 104.037 87.1669 101.874C88.3506 99.9321 89.9695 98.2923 91.8958 97.0846V93.2808C89.2881 94.917 87.0954 97.1364 85.4902 99.7644Z" fill="#E0E0E0"></path>
  <path d="M99.5708 106.728C99.011 109.235 98.0076 111.621 96.6081 113.774C95.4208 115.718 93.7993 117.36 91.8711 118.572V122.375C94.485 120.731 96.6808 118.5 98.2848 115.859C100.179 112.949 101.541 109.725 102.306 106.337L99.5708 106.728Z" fill="#E0E0E0"></path>
  <path d="M113.09 53.2305C113.039 53.2426 112.986 53.2426 112.935 53.2305C112.888 53.2031 112.848 53.1641 112.819 53.1171C112.791 53.0701 112.775 53.0166 112.772 52.9617V46.9831C112.773 46.9278 112.789 46.8737 112.817 46.8265C112.846 46.7792 112.887 46.7405 112.935 46.7143L118.055 43.7494C118.103 43.7251 118.156 43.7124 118.209 43.7124C118.263 43.7124 118.316 43.7251 118.364 43.7494C118.413 43.7776 118.453 43.8179 118.482 43.8664C118.511 43.9149 118.526 43.97 118.527 44.0264V49.9398C118.526 49.9961 118.511 50.0512 118.482 50.0998C118.453 50.1483 118.413 50.1886 118.364 50.2168L113.245 53.1735C113.199 53.2051 113.145 53.2247 113.09 53.2305V53.2305ZM113.407 47.1786V52.3671L117.892 49.7769V44.5884L113.407 47.1786Z" fill="#E0E0E0"></path>
  <path d="M118.812 42.5603C118.736 42.5283 118.655 42.5115 118.574 42.511C118.492 42.5105 118.411 42.5262 118.335 42.5573C118.259 42.5883 118.19 42.6341 118.133 42.6919C118.075 42.7498 118.029 42.8186 117.998 42.8943L115.654 48.4819L115.092 47.9362C115.034 47.8781 114.966 47.8319 114.891 47.8005C114.815 47.769 114.734 47.7528 114.652 47.7528C114.571 47.7528 114.49 47.769 114.414 47.8005C114.339 47.8319 114.27 47.8781 114.213 47.9362C114.155 47.9931 114.109 48.0609 114.078 48.1357C114.046 48.2105 114.03 48.2908 114.03 48.372C114.03 48.4531 114.046 48.5334 114.078 48.6082C114.109 48.6831 114.155 48.7509 114.213 48.8077L115.418 49.9888C115.536 50.1024 115.693 50.1665 115.857 50.168H115.979C116.078 50.148 116.17 50.1042 116.248 50.0403C116.326 49.9764 116.388 49.8944 116.427 49.8015L119.129 43.3748C119.195 43.2247 119.198 43.0546 119.139 42.9019C119.079 42.7492 118.961 42.6264 118.812 42.5603V42.5603Z" fill="#2051FF"></path>
  <path d="M122.564 43.5948L141.374 32.7046C141.821 32.4439 142.188 32.6312 142.188 33.1281C142.167 33.4026 142.083 33.6685 141.942 33.9047C141.8 34.1409 141.606 34.3407 141.374 34.4884L122.564 45.3542C122.108 45.6148 121.75 45.4275 121.75 44.9388C121.772 44.6668 121.857 44.4036 121.998 44.1703C122.139 43.9369 122.333 43.7399 122.564 43.5948V43.5948Z" fill="#E0E0E0"></path>
  <path d="M113.09 62.1094C113.039 62.1216 112.986 62.1216 112.935 62.1094C112.887 62.0813 112.846 62.041 112.817 61.9925C112.789 61.9439 112.773 61.8888 112.772 61.8325V55.919C112.773 55.8627 112.789 55.8076 112.817 55.7591C112.846 55.7105 112.887 55.6702 112.935 55.6421L118.055 52.6854C118.102 52.6574 118.155 52.6426 118.209 52.6426C118.264 52.6426 118.317 52.6574 118.364 52.6854C118.413 52.7135 118.453 52.7538 118.482 52.8023C118.511 52.8509 118.526 52.906 118.527 52.9623V58.8758C118.527 58.9312 118.512 58.9857 118.483 59.0331C118.455 59.0805 118.413 59.1191 118.364 59.1446L113.245 62.1094C113.194 62.1216 113.141 62.1216 113.09 62.1094V62.1094ZM113.407 56.0575V61.246L117.892 58.6558V53.4999L113.407 56.0575Z" fill="#E0E0E0"></path>
  <path d="M118.812 51.4312C118.736 51.3991 118.656 51.3824 118.574 51.3818C118.492 51.3813 118.411 51.397 118.335 51.4281C118.259 51.4592 118.191 51.505 118.133 51.5628C118.075 51.6206 118.029 51.6894 117.998 51.7651L115.654 57.3528L115.092 56.8152C115.034 56.7585 114.965 56.7138 114.89 56.6838C114.814 56.6537 114.733 56.6388 114.652 56.64C114.488 56.6422 114.332 56.7097 114.217 56.8274C114.103 56.9451 114.04 57.1035 114.042 57.2678C114.044 57.432 114.112 57.5885 114.229 57.703L115.434 58.8841C115.553 58.9955 115.71 59.0567 115.874 59.0551H115.996C116.094 59.0352 116.187 58.9913 116.265 58.9275C116.343 58.8636 116.404 58.7816 116.443 58.6886L119.145 52.2538C119.178 52.1779 119.194 52.0964 119.195 52.0139C119.196 51.9314 119.18 51.8496 119.149 51.7732C119.118 51.6968 119.072 51.6273 119.014 51.5686C118.957 51.5099 118.888 51.4632 118.812 51.4312V51.4312Z" fill="#2051FF"></path>
  <path d="M122.564 52.4407L141.374 41.5586C141.822 41.2898 142.188 41.4772 142.188 41.974C142.168 42.2498 142.084 42.5171 141.943 42.7547C141.802 42.9922 141.607 43.1935 141.374 43.3425L122.532 54.2246C122.076 54.4852 121.718 54.2979 121.718 53.8091C121.739 53.5299 121.827 53.26 121.975 53.0219C122.122 52.7838 122.324 52.5845 122.564 52.4407V52.4407Z" fill="#E0E0E0"></path>
  <path d="M113.09 70.9876C113.035 70.9876 112.981 70.9705 112.935 70.9387C112.887 70.9125 112.846 70.8738 112.817 70.8265C112.789 70.7792 112.773 70.7252 112.772 70.6699V64.7483C112.775 64.6934 112.791 64.6399 112.819 64.5929C112.848 64.5459 112.888 64.5069 112.935 64.4795L118.055 61.5227C118.102 61.4948 118.155 61.48 118.209 61.48C118.264 61.48 118.317 61.4948 118.364 61.5227C118.413 61.5489 118.454 61.5877 118.482 61.6349C118.511 61.6822 118.526 61.7363 118.527 61.7915V67.7132C118.525 67.7681 118.509 67.8215 118.48 67.8685C118.452 67.9155 118.412 67.9545 118.364 67.982L113.245 70.9387C113.199 70.9705 113.145 70.9876 113.09 70.9876V70.9876ZM113.407 64.9356V70.1242L117.892 67.5258V62.3373L113.407 64.9356Z" fill="#E0E0E0"></path>
  <path d="M118.812 60.3091C118.737 60.2771 118.656 60.2603 118.574 60.2598C118.492 60.2593 118.411 60.275 118.336 60.306C118.26 60.3371 118.191 60.3829 118.133 60.4407C118.075 60.4986 118.029 60.5673 117.998 60.643L115.654 66.2307L115.093 65.685C114.975 65.5696 114.818 65.5049 114.653 65.5049C114.489 65.5049 114.331 65.5696 114.214 65.685C114.156 65.7425 114.109 65.811 114.078 65.8865C114.046 65.962 114.03 66.043 114.03 66.1248C114.03 66.2066 114.046 66.2876 114.078 66.3631C114.109 66.4386 114.156 66.5071 114.214 66.5647L115.418 67.7376C115.536 67.8512 115.694 67.9153 115.858 67.9168H115.98C116.079 67.8968 116.171 67.853 116.249 67.7891C116.327 67.7252 116.388 67.6432 116.427 67.5502L119.13 61.1236C119.195 60.9735 119.199 60.8034 119.139 60.6507C119.08 60.498 118.962 60.3752 118.812 60.3091V60.3091Z" fill="#2051FF"></path>
  <path d="M122.564 61.2861L141.374 50.404C141.822 50.1434 142.188 50.3307 142.188 50.8194C142.169 51.0953 142.085 51.3629 141.944 51.6006C141.802 51.8382 141.607 52.0394 141.374 52.1878L122.532 63.0699C122.076 63.3306 121.718 63.1432 121.718 62.6545C121.741 62.3758 121.83 62.1066 121.977 61.8688C122.124 61.631 122.325 61.4314 122.564 61.2861Z" fill="#E0E0E0"></path>
  <path d="M115.589 108.391L112.545 110.15V76.0865L115.589 74.3271V108.391Z" fill="#E0E0E0"></path>
  <path d="M120.961 105.287L117.917 107.046V72.9828L120.961 71.2234V105.287Z" fill="#E0E0E0"></path>
  <path d="M126.333 102.184L123.289 103.943V69.8795L126.333 68.1201V102.184Z" fill="#E0E0E0"></path>
  <path d="M131.704 99.0807L128.66 100.84V66.7765L131.704 65.0171V99.0807Z" fill="#E0E0E0"></path>
  <path d="M137.076 95.9771L134.032 97.7284V63.673L137.076 61.9136V95.9771Z" fill="#E0E0E0"></path>
  <path d="M142.448 92.8655L139.404 94.6249V60.5613L142.448 58.8101V92.8655Z" fill="#E0E0E0"></path>
  <path d="M139.404 60.5613L142.448 58.8101V74.3513L139.404 76.1106V60.5613Z" fill="#8CBFFF"></path>
  <path d="M112.545 83.5231L115.589 81.7637V100.783L112.545 102.542V83.5231Z" fill="#8CBFFF"></path>
  <path opacity="0.15" d="M112.545 102.542L115.589 100.783V108.391L112.545 110.15V102.542Z" fill="black"></path>
  <path d="M117.917 84.745L120.961 82.9856V89.8276L117.917 91.587V84.745Z" fill="#8CBFFF"></path>
  <path opacity="0.15" d="M117.917 91.5868L120.961 89.8274V105.287L117.917 107.047V91.5868Z" fill="black"></path>
  <path d="M123.289 72.7306L126.333 70.9712V76.9417L123.289 78.7011V72.7306Z" fill="#8CBFFF"></path>
  <path opacity="0.15" d="M123.289 78.7008L126.333 76.9414V102.184L123.289 103.943V78.7008Z" fill="black"></path>
  <path d="M128.66 74.2127L131.704 72.4534V87.5058L128.66 89.2652V74.2127Z" fill="#8CBFFF"></path>
  <path opacity="0.15" d="M128.66 89.2652L131.704 87.5059V99.0803L128.66 100.84V89.2652Z" fill="black"></path>
  <path d="M134.032 77.2184L137.076 75.459V81.8286L134.032 83.588V77.2184Z" fill="#8CBFFF"></path>
  <path opacity="0.15" d="M134.032 83.588L137.076 81.8286V95.977L134.032 97.7282V83.588Z" fill="black"></path>
  <path opacity="0.15" d="M139.404 76.1112L142.448 74.3518V92.866L139.404 94.6254V76.1112Z" fill="black"></path>
  <path d="M112.545 102.542L115.589 100.783V108.391L112.545 110.15V102.542Z" fill="#6CA4EE"></path>
  <path d="M112.545 102.542L115.589 100.783V108.391L112.545 110.15V102.542Z" fill="#0A68E2"></path>
  <path d="M117.917 91.5868L120.961 89.8274V105.287L117.917 107.047V91.5868Z" fill="#6CA4EE"></path>
  <path d="M117.917 91.5868L120.961 89.8274V105.287L117.917 107.047V91.5868Z" fill="#0A68E2"></path>
  <path d="M123.289 78.7008L126.333 76.9414V102.184L123.289 103.943V78.7008Z" fill="#6CA4EE"></path>
  <path d="M123.289 78.7008L126.333 76.9414V102.184L123.289 103.943V78.7008Z" fill="#0A68E2"></path>
  <path d="M128.66 89.2652L131.704 87.5059V99.0803L128.66 100.84V89.2652Z" fill="#6CA4EE"></path>
  <path d="M128.66 89.2652L131.704 87.5059V99.0803L128.66 100.84V89.2652Z" fill="#0A68E2"></path>
  <path d="M134.032 83.588L137.076 81.8286V95.977L134.032 97.7282V83.588Z" fill="#6CA4EE"></path>
  <path d="M134.032 83.588L137.076 81.8286V95.977L134.032 97.7282V83.588Z" fill="#0A68E2"></path>
  <path d="M139.404 76.1112L142.448 74.3518V92.866L139.404 94.6254V76.1112Z" fill="#6CA4EE"></path>
  <path d="M139.404 76.1112L142.448 74.3518V92.866L139.404 94.6254V76.1112Z" fill="#0A68E2"></path>
  <path d="M79.5893 49.484C79.5005 49.4831 79.4144 49.4531 79.3442 49.3987C79.274 49.3442 79.2235 49.2683 79.2005 49.1825C79.1774 49.0966 79.1831 49.0056 79.2165 48.9233C79.25 48.8409 79.3095 48.7718 79.3858 48.7265L143.816 11.3967C143.909 11.3432 144.019 11.3286 144.123 11.3561C144.226 11.3835 144.315 11.4508 144.369 11.5433C144.423 11.6375 144.438 11.7491 144.411 11.8542C144.383 11.9592 144.316 12.0493 144.223 12.1053L79.7928 49.427C79.7317 49.4647 79.6612 49.4845 79.5893 49.484V49.484Z" fill="#E0E0E0"></path>
  <path d="M79.5893 53.247C79.5005 53.2461 79.4144 53.2161 79.3442 53.1617C79.274 53.1072 79.2235 53.0313 79.2005 52.9455C79.1774 52.8596 79.1831 52.7686 79.2165 52.6863C79.25 52.6039 79.3095 52.5348 79.3858 52.4895L143.816 15.1596C143.91 15.109 144.021 15.0968 144.124 15.1257C144.227 15.1545 144.315 15.2221 144.369 15.3144C144.423 15.4074 144.437 15.5178 144.41 15.6215C144.382 15.7252 144.315 15.8139 144.223 15.8683L79.7847 53.1981C79.7239 53.2285 79.6572 53.2452 79.5893 53.247Z" fill="#E0E0E0"></path>
  <path d="M79.5892 57.0183C79.5182 57.0178 79.4485 56.9988 79.3871 56.9631C79.3257 56.9274 79.2747 56.8762 79.2392 56.8146C79.1854 56.7204 79.1706 56.6088 79.198 56.5037C79.2254 56.3987 79.2928 56.3085 79.3857 56.2526L143.816 18.9309C143.908 18.8894 144.012 18.8834 144.107 18.9142C144.203 18.9449 144.285 19.0102 144.335 19.0973C144.386 19.1845 144.402 19.2874 144.382 19.386C144.361 19.4847 144.304 19.5721 144.223 19.6314L79.7845 56.9612C79.7242 56.994 79.6576 57.0134 79.5892 57.0183V57.0183Z" fill="#E0E0E0"></path>
  <path d="M62.7292 58.7867C63.5108 59.2942 64.1609 59.979 64.6263 60.7851C65.0917 61.5911 65.3593 62.4955 65.4071 63.4245C65.4071 65.1239 64.1961 65.8149 62.7105 64.9559C61.9275 64.4507 61.276 63.7675 60.8093 62.9623C60.3427 62.1572 60.0744 61.253 60.0264 60.3243C60.0326 58.5875 61.2373 57.9027 62.7292 58.7867Z" fill="#A3A8B0"></path>
  <path d="M161.568 7.5532C161.571 7.50968 161.571 7.466 161.568 7.42247V7.29174V7.16101C161.571 7.11543 161.571 7.06965 161.568 7.02406V7.02406V6.89333C161.568 6.84975 161.568 6.79995 161.536 6.75637C161.505 6.7128 161.536 6.71902 161.536 6.70657C161.536 6.70657 161.536 6.663 161.536 6.64432L161.499 6.50114C161.499 6.47001 161.499 6.43266 161.468 6.40154V6.35796C161.468 6.31438 161.437 6.27081 161.424 6.221C161.412 6.1712 161.393 6.13385 161.374 6.08405V6.04047L161.337 5.95332C161.323 5.90875 161.306 5.86509 161.287 5.82259C161.275 5.79031 161.26 5.75908 161.243 5.72921V5.69809L161.187 5.56736C161.161 5.52088 161.139 5.47308 161.118 5.42418V5.42418V5.39305L161.056 5.281L160.981 5.14404L160.943 5.07556V5.04444L160.869 4.92616L160.762 4.75808V4.72695L160.594 4.49039C160.551 4.44121 160.511 4.38922 160.475 4.33476C160.438 4.29741 160.407 4.25383 160.375 4.21648L160.269 4.09198L160.169 3.97992L160.095 3.899L159.982 3.78694L159.945 3.75582L159.889 3.70601L159.77 3.60018L159.714 3.55661H159.67C159.633 3.52411 159.593 3.49494 159.551 3.46945L159.47 3.4072L159.352 3.3325L159.239 3.26402L159.152 3.21422L159.04 3.15819L158.971 3.12084H158.933L158.827 3.07104L158.715 3.03369H158.64L158.528 3.00256H158.478H158.422H158.303H157.916C157.864 2.99915 157.812 2.99915 157.76 3.00256H157.722L157.573 3.03991C157.5 3.06422 157.431 3.0977 157.367 3.13952L61 58.8553C61.065 58.8168 61.1341 58.7855 61.206 58.7619L61.3683 58.7121C61.4347 58.706 61.5016 58.706 61.568 58.7121H61.8427C61.9176 58.7121 61.9925 58.7121 62.0674 58.7495L62.3046 58.8117C62.3858 58.8117 62.4732 58.874 62.5605 58.9176C62.6479 58.9549 62.7353 59.0047 62.829 59.0545L63.0974 59.2288C63.1785 59.2911 63.2597 59.3471 63.3408 59.4156L63.5655 59.6148H63.5967L63.8152 59.8389L64.0462 60.0941L64.2647 60.3743C64.3333 60.4614 64.3957 60.5548 64.4519 60.6419L64.5643 60.8162C64.5643 60.8661 64.6267 60.9096 64.6517 60.9594L64.6891 61.0279L64.8265 61.2831C64.8826 61.389 64.9326 61.4886 64.9763 61.5944C65.02 61.694 65.0637 61.7998 65.1011 61.8994C65.1448 62.0053 65.176 62.1111 65.2135 62.2169C65.2135 62.3228 65.2759 62.4224 65.3009 62.5282C65.3009 62.634 65.3446 62.7398 65.3633 62.8457C65.3819 62.9507 65.3944 63.0567 65.4007 63.1632C65.407 63.2668 65.407 63.3708 65.4007 63.4744C65.4007 63.574 65.4007 63.6736 65.4007 63.767L65.3633 64.016C65.347 64.0919 65.3262 64.1667 65.3009 64.2401C65.3029 64.2546 65.3029 64.2692 65.3009 64.2837C65.2824 64.3484 65.2573 64.4109 65.2259 64.4705V64.4705C65.1943 64.5368 65.1589 64.6012 65.1198 64.6634C65.088 64.7117 65.0525 64.7575 65.0137 64.8004L64.9763 64.844L64.8701 64.9436L64.8265 64.9809C64.7791 65.0197 64.729 65.0551 64.6766 65.0868V65.0868L161.043 9.37097C161.099 9.33929 161.152 9.30173 161.199 9.25892L161.243 9.22156L161.343 9.12819L161.387 9.07838C161.423 9.03535 161.457 8.98957 161.487 8.94143C161.487 8.8854 161.555 8.82315 161.586 8.75467C161.606 8.71429 161.622 8.6727 161.636 8.63017C161.636 8.63017 161.636 8.58659 161.636 8.56169V8.52434C161.634 8.51204 161.634 8.49929 161.636 8.48699C161.65 8.44223 161.661 8.39644 161.668 8.35003C161.67 8.33355 161.67 8.31671 161.668 8.30023V8.2691C161.668 8.2691 161.668 8.2691 161.668 8.2193V8.08857C161.668 8.08857 161.668 8.03877 161.668 8.0201V7.96407C161.668 7.92049 161.668 7.87692 161.668 7.83334C161.668 7.78976 161.668 7.74619 161.668 7.70261C161.64 7.64901 161.607 7.59886 161.568 7.5532V7.5532Z" fill="#B5B9BD"></path>
  <path d="M114.526 108.19C114.281 107.703 113.913 107.289 113.457 106.989C113.001 106.688 112.475 106.512 111.929 106.479C111.814 106.483 111.7 106.506 111.592 106.547L33.9958 151.232C33.6017 151.455 33.2841 151.791 33.0845 152.197C32.9326 152.502 32.8535 152.839 32.8535 153.18V222.28C32.8687 222.617 32.9631 222.946 33.1292 223.24C33.2952 223.535 33.5283 223.786 33.8095 223.974C34.0908 224.161 34.4124 224.281 34.7483 224.322C35.0843 224.363 35.4252 224.325 35.7436 224.21V224.21C35.7743 224.201 35.8036 224.189 35.831 224.173L113.427 179.463C113.773 179.267 114.059 178.984 114.259 178.642C114.459 178.299 114.564 177.91 114.564 177.515V108.433C114.567 108.351 114.555 108.268 114.526 108.19V108.19Z" fill="white"></path>
  <path opacity="0.2" d="M32.8594 153.18V222.28C32.8746 222.618 32.969 222.947 33.135 223.241C33.3011 223.535 33.5342 223.786 33.8154 223.974C34.0967 224.162 34.4183 224.281 34.7542 224.322C35.0902 224.363 35.4311 224.325 35.7495 224.21V224.21C35.6652 224.24 35.575 224.249 35.4864 224.237C35.3978 224.225 35.3133 224.192 35.2401 224.141C35.1668 224.09 35.1069 224.022 35.0652 223.943C35.0235 223.864 35.0013 223.776 35.0005 223.687V154.587C35 154.144 35.1326 153.71 35.3812 153.342L33.0841 152.197C32.9344 152.503 32.8575 152.84 32.8594 153.18V153.18Z" fill="white"></path>
  <path opacity="0.4" d="M111.93 106.479C111.815 106.483 111.701 106.506 111.593 106.547L33.9963 151.232C33.6022 151.455 33.2846 151.791 33.085 152.197L35.3883 153.342C35.5808 153.05 35.8395 152.807 36.1436 152.632L113.746 107.966C113.813 107.929 113.887 107.906 113.963 107.898C114.039 107.89 114.116 107.897 114.189 107.92C114.262 107.943 114.33 107.98 114.388 108.03C114.446 108.079 114.493 108.141 114.527 108.209C114.284 107.719 113.917 107.3 113.461 106.997C113.005 106.693 112.477 106.514 111.93 106.479V106.479Z" fill="white"></path>
  <path opacity="0.3" d="M114.526 108.19C114.281 107.703 113.913 107.289 113.457 106.989C113.001 106.688 112.475 106.512 111.929 106.479C111.814 106.483 111.7 106.506 111.592 106.547L33.9958 151.232C33.6017 151.455 33.2841 151.791 33.0845 152.197C32.9326 152.502 32.8535 152.839 32.8535 153.18V222.28C32.8687 222.617 32.9631 222.946 33.1292 223.24C33.2952 223.535 33.5283 223.786 33.8095 223.974C34.0908 224.161 34.4124 224.281 34.7483 224.322C35.0843 224.363 35.4252 224.325 35.7436 224.21V224.21C35.7743 224.201 35.8036 224.189 35.831 224.173L113.427 179.463C113.773 179.267 114.059 178.984 114.259 178.642C114.459 178.299 114.564 177.91 114.564 177.515V108.433C114.567 108.351 114.555 108.268 114.526 108.19V108.19Z" fill="white"></path>
  <path opacity="0.4" d="M109.763 117.678C109.577 117.305 109.295 116.988 108.947 116.759C108.598 116.529 108.195 116.395 107.778 116.37C107.691 116.374 107.605 116.391 107.522 116.42L39.8823 155.278C39.6188 155.428 39.3998 155.644 39.2474 155.905C39.095 156.167 39.0147 156.464 39.0146 156.766V206.039C39.0268 206.294 39.0983 206.542 39.2237 206.765C39.349 206.988 39.5247 207.178 39.7368 207.322C39.9488 207.465 40.1914 207.557 40.4453 207.59C40.6992 207.623 40.9574 207.597 41.1994 207.514V207.514L41.2681 207.483L108.908 168.606C109.172 168.457 109.391 168.24 109.543 167.979C109.696 167.718 109.776 167.421 109.776 167.118V117.864C109.785 117.802 109.781 117.738 109.763 117.678V117.678Z" fill="white"></path>
  <path d="M108.708 166.515V167.224L43.1904 204.943V204.233L108.708 166.515Z" fill="#B5B9BD"></path>
  <g opacity="0.4">
    <path d="M39.54 214.997V216.64L44.0843 214.025V212.376L39.54 214.997Z" fill="white"></path>
    <path d="M54.1902 203.268L39.5273 211.71L39.5336 213.353L54.1964 204.912L54.1902 203.268Z" fill="white"></path>
    <path d="M94.4148 180.229L79.752 188.67L79.7582 190.314L94.4211 181.866L94.4148 180.229Z" fill="white"></path>
    <path d="M60.0146 203.206L60.0209 204.85L67.5552 200.511L67.549 198.867L60.0146 203.206Z" fill="white"></path>
    <path d="M95.6758 179.563L95.682 181.212L103.216 176.873L103.21 175.224L95.6758 179.563Z" fill="white"></path>
    <path d="M70.6387 197.192L70.6449 198.842L83.7784 191.328L83.7722 189.685L70.6387 197.192Z" fill="white"></path>
    <path d="M56.5068 201.936V203.58L69.7402 195.96L69.734 194.316L56.5068 201.936Z" fill="white"></path>
    <path d="M46.3945 211.044L46.4008 212.694L57.7053 206.182V204.532L46.3945 211.044Z" fill="white"></path>
    <path d="M78.0844 189.511L72.042 192.984L72.0482 194.628L78.0907 191.148L78.0844 189.511Z" fill="white"></path>
  </g>
  <path d="M73.1407 81.5586C72.896 81.0716 72.5273 80.6572 72.0717 80.3568C71.616 80.0563 71.0892 79.8805 70.544 79.8467C70.4267 79.8519 70.3109 79.875 70.2007 79.9152L16.106 111.184C15.7645 111.383 15.4812 111.668 15.2841 112.01C15.087 112.351 14.983 112.739 14.9824 113.133V147.652C14.9973 147.99 15.0917 148.32 15.2581 148.614C15.4246 148.909 15.6583 149.161 15.9403 149.349C16.2224 149.537 16.5449 149.656 16.8816 149.696C17.2184 149.737 17.56 149.697 17.8788 149.582V149.582L17.9724 149.544L72.0733 118.25C72.4193 118.055 72.7069 117.772 72.9066 117.43C73.1063 117.087 73.2108 116.698 73.2094 116.302V81.8201C73.209 81.7285 73.1854 81.6386 73.1407 81.5586Z" fill="#B6D2F8"></path>
  <path opacity="0.2" d="M14.9825 113.133V147.652C14.9974 147.99 15.0918 148.32 15.2583 148.615C15.4247 148.909 15.6584 149.161 15.9404 149.349C16.2225 149.537 16.545 149.656 16.8818 149.696C17.2185 149.737 17.5601 149.698 17.8789 149.582V149.582C17.7946 149.612 17.7044 149.621 17.6158 149.609C17.5272 149.597 17.4427 149.564 17.3695 149.513C17.2962 149.461 17.2362 149.394 17.1946 149.315C17.1529 149.236 17.1307 149.148 17.1298 149.059V114.534C17.1293 114.09 17.2619 113.657 17.5106 113.289L15.2073 112.143C15.0559 112.451 14.979 112.79 14.9825 113.133V113.133Z" fill="white"></path>
  <path opacity="0.4" d="M70.538 79.8467C70.4208 79.8519 70.305 79.875 70.1947 79.9152L16.1063 111.184C15.713 111.407 15.3971 111.743 15.2012 112.149L17.4796 113.295C17.6703 113.001 17.9295 112.758 18.2349 112.585L72.3358 81.3158C72.4025 81.2784 72.4762 81.255 72.5523 81.247C72.6284 81.239 72.7054 81.2466 72.7784 81.2694C72.8515 81.2921 72.9191 81.3295 72.9772 81.3792C73.0352 81.429 73.0825 81.49 73.1161 81.5586V81.5586C72.8729 81.0742 72.5071 80.6615 72.055 80.3612C71.6029 80.061 71.08 79.8836 70.538 79.8467V79.8467Z" fill="white"></path>
  <path opacity="0.3" d="M73.1407 81.5586C72.896 81.0716 72.5273 80.6572 72.0717 80.3568C71.616 80.0563 71.0892 79.8805 70.544 79.8467C70.4267 79.8519 70.3109 79.875 70.2007 79.9152L16.106 111.184C15.7645 111.383 15.4812 111.668 15.2841 112.01C15.087 112.351 14.983 112.739 14.9824 113.133V147.652C14.9973 147.99 15.0917 148.32 15.2581 148.614C15.4246 148.909 15.6583 149.161 15.9403 149.349C16.2224 149.537 16.5449 149.656 16.8816 149.696C17.2184 149.737 17.56 149.697 17.8788 149.582V149.582L17.9724 149.544L72.0733 118.25C72.4193 118.055 72.7069 117.772 72.9066 117.43C73.1063 117.087 73.2108 116.698 73.2094 116.302V81.8201C73.209 81.7285 73.1854 81.6386 73.1407 81.5586Z" fill="white"></path>
  <path d="M67.3228 90.8779L67.329 93.9158L22.0795 119.968L22.0732 116.93L22.0795 119.968L58.5962 98.9458L58.5837 95.9079L67.3228 90.8779Z" fill="#F5F5F5"></path>
  <path opacity="0.4" d="M62.2918 108.601L62.3043 111.645L22.1234 134.778L22.1172 131.734L62.2918 108.601Z" fill="white"></path>
  <path d="M67.3794 110.612L67.3856 113.656L22.1361 139.709L22.1299 136.664L22.1361 139.709L47.2983 125.222L47.2858 122.185L67.3794 110.612Z" fill="#F5F5F5"></path>
  <path d="M47.2858 122.184L47.2983 125.222L22.1361 139.708L22.1299 136.664L47.2858 122.184Z" fill="#4A93F3"></path>
  <path d="M67.3605 105.681L67.3729 108.726L22.1234 134.778L22.1172 131.734L22.1234 134.778L62.3043 111.645L62.2918 108.601L67.3605 105.681Z" fill="#F5F5F5"></path>
  <path d="M67.3481 100.745L67.3606 103.783L22.1111 129.835L22.0986 126.797L22.1111 129.835L50.7377 113.351L50.7252 110.313L67.3481 100.745Z" fill="#F5F5F5"></path>
  <path d="M50.7252 110.313L50.7377 113.351L22.1111 129.835L22.0986 126.797L50.7252 110.313Z" fill="#4A93F3"></path>
  <path d="M67.3364 95.8081L67.3427 98.846L22.0994 124.905L22.0869 121.861L22.0994 124.905L38.9595 115.193L38.947 112.156L67.3364 95.8081Z" fill="#F5F5F5"></path>
  <path d="M38.947 112.156L38.9595 115.194L22.0994 124.905L22.0869 121.861L38.947 112.156Z" fill="#4A93F3"></path>
  <path d="M58.5837 95.908L58.5962 98.9459L22.0795 119.968L22.0732 116.931L58.5837 95.908Z" fill="#4A93F3"></path>
  <path opacity="0.4" d="M62.2918 108.601L62.3043 111.645L22.1234 134.778L22.1172 131.734L62.2918 108.601Z" fill="white"></path>
  <path opacity="0.4" d="M47.2858 122.184L47.2983 125.222L22.1361 139.708L22.1299 136.664L47.2858 122.184Z" fill="white"></path>
  <path opacity="0.4" d="M50.7252 110.313L50.7377 113.351L22.1111 129.835L22.0986 126.797L50.7252 110.313Z" fill="white"></path>
  <path opacity="0.4" d="M38.947 112.156L38.9595 115.194L22.0994 124.905L22.0869 121.861L38.947 112.156Z" fill="white"></path>
  <g opacity="0.4">
    <path d="M58.5827 95.908L58.5952 98.9459L22.0785 119.968L22.0723 116.931L58.5827 95.908Z" fill="white"></path>
  </g>
  <path d="M49.5143 186.101L49.5456 198.689L46.0375 200.712L46 188.125L49.5143 186.101Z" fill="#528DFF"></path>
  <path d="M60.0198 172.592L60.076 192.625L56.5679 194.648L56.5117 174.615L60.0198 172.592Z" fill="#528DFF"></path>
  <path d="M70.5442 165.975L70.5567 168.913L70.6067 186.562L67.0986 188.585L67.0361 167.992L70.5442 165.975Z" fill="#528DFF"></path>
  <path d="M102.123 144L102.192 168.378L98.6839 170.395L98.6152 146.023L102.123 144Z" fill="#528DFF"></path>
  <path d="M91.5804 145.768L91.6615 174.442L88.1534 176.459L88.0723 147.785L91.5804 145.768Z" fill="#528DFF"></path>
  <path d="M81.0739 158.717L81.1301 180.499L77.622 182.522L77.5596 160.74L81.0739 158.717Z" fill="#528DFF"></path>
  <path d="M53.0843 179.83L53.128 196.893L49.6199 198.917L49.5887 186.329L49.5762 181.847L53.0843 179.83Z" fill="#8CBFFF"></path>
  <path d="M74.139 167.118L74.1889 184.773L70.6808 186.79L70.6309 169.141L74.139 167.118Z" fill="#8CBFFF"></path>
  <path d="M105.668 129.35L105.774 166.583L102.266 168.606L102.198 144.228L102.16 131.367L105.668 129.35Z" fill="#8CBFFF"></path>
  <path d="M95.1559 139.752L95.2433 172.646L91.7352 174.669L91.6541 145.996L91.6416 141.775L95.1559 139.752Z" fill="#8CBFFF"></path>
  <path d="M84.6507 154.587L84.7193 178.71L81.205 180.727L81.1488 158.945L81.1426 156.61L84.6507 154.587Z" fill="#8CBFFF"></path>
  <path d="M63.5833 163.744L63.6582 190.836L60.1501 192.853L60.0939 172.82L60.0752 165.761L63.5833 163.744Z" fill="#8CBFFF"></path>
  <path d="M104.783 120.149L102.991 124.762L102.361 123.884L73.7967 159.3L62.2549 158.316L45.9753 178.137L45.4697 177.39L62.2612 156.94L73.7905 157.924L101.837 123.156L101.175 122.228L104.783 120.149Z" fill="#0A68E2"></path>
  <path d="M290.569 192.62C290.739 193.055 291.041 193.426 291.433 193.681C291.826 193.935 292.288 194.061 292.756 194.039C293.223 194.017 293.672 193.85 294.039 193.56C294.406 193.27 294.672 192.873 294.801 192.424C295.089 191.604 295.219 190.737 295.185 189.869C295.243 186.996 295.185 184.115 294.981 181.241C292.995 181.659 290.97 181.869 288.94 181.87C289.243 184.523 289.554 187.184 289.865 189.837C289.914 190.802 290.153 191.747 290.569 192.62V192.62Z" fill="#FFA8A7"></path>
  <path d="M296.879 188.481C296.134 186.081 295.316 183.633 295.487 181.135L294.988 181.249C295.176 184.122 295.25 187.004 295.193 189.877C295.227 190.745 295.096 191.612 294.808 192.432C294.68 192.881 294.413 193.278 294.046 193.568C293.679 193.857 293.23 194.025 292.763 194.047C292.295 194.068 291.833 193.943 291.441 193.688C291.048 193.434 290.746 193.063 290.577 192.628C290.161 191.755 289.921 190.809 289.873 189.844C289.562 187.191 289.251 184.53 288.948 181.878H288.309C288.85 184.857 288.457 187.91 288.309 190.938C288.162 193.966 288.154 197.109 289.455 199.843C289.756 200.584 290.272 201.218 290.937 201.664C291.3 201.861 291.701 201.982 292.113 202.02C292.525 202.058 292.941 202.011 293.335 201.884C294.118 201.62 294.83 201.178 295.414 200.594C296.745 199.329 297.632 197.668 297.943 195.86C298.311 193.395 297.615 190.873 296.879 188.481Z" fill="#455A64"></path>
  <path d="M265.393 186.188L265.892 189.151C267.129 188.652 268.206 187.829 269.01 186.767C269.068 184.49 269.01 182.147 269.01 181.004C268.38 182.392 267.005 183.323 266.154 184.604C265.832 185.097 265.576 185.629 265.393 186.188V186.188Z" fill="#37474F"></path>
  <path d="M264.632 188.832L265.892 189.151L265.393 186.188C265.082 187.053 264.877 187.943 264.632 188.832Z" fill="#263238"></path>
  <path d="M269.141 177.715C268.892 176.93 268.563 176.172 268.159 175.454C268.127 176.674 267.75 177.859 267.07 178.874C266.252 180.237 265.082 181.413 264.271 182.8C263.273 184.49 262.757 186.473 261.456 187.934C260.814 188.645 260.014 189.196 259.12 189.544C258.226 189.891 257.263 190.025 256.307 189.934C255.597 189.917 254.922 189.624 254.425 189.118C254.23 188.859 254.121 188.545 254.114 188.22C253.472 188.908 252.762 189.529 251.994 190.073C251.135 190.669 250.103 191.297 249.964 192.334C249.94 192.767 250.045 193.198 250.265 193.572C250.484 193.947 250.81 194.249 251.2 194.44C251.986 194.809 252.844 195.001 253.713 195.003C255.568 195.165 257.437 195.005 259.238 194.53C261.049 194.038 262.618 192.903 263.649 191.338C264.085 190.569 264.415 189.746 264.631 188.889C264.877 188 265.082 187.094 265.393 186.245C265.594 185.683 265.87 185.151 266.211 184.661C267.03 183.38 268.437 182.449 269.068 181.062C269.068 180.988 269.141 180.915 269.166 180.841C269.5 179.824 269.492 178.726 269.141 177.715V177.715Z" fill="#455A64"></path>
  <path d="M256.308 189.934C257.263 190.025 258.226 189.891 259.12 189.544C260.014 189.197 260.814 188.646 261.456 187.935C262.757 186.474 263.273 184.49 264.272 182.8C265.09 181.413 266.22 180.237 267.071 178.874C267.75 177.859 268.127 176.674 268.159 175.454L267.857 174.875C265.287 175.332 262.479 175.495 260.007 176.327C259.245 178.914 258.276 181.437 257.11 183.87C256.321 185.445 255.312 186.902 254.114 188.196C254.121 188.52 254.23 188.834 254.425 189.094C254.918 189.609 255.594 189.911 256.308 189.934V189.934Z" fill="#FFA8A7"></path>
  <path d="M263.321 83.0859L262.904 89.616C257.993 109.81 259.45 139.987 259.45 139.987L259.606 176.776C260.301 177.234 261.081 177.549 261.9 177.702C262.719 177.855 263.56 177.844 264.374 177.668C265.189 177.492 265.959 177.156 266.642 176.679C267.324 176.202 267.904 175.594 268.347 174.891C269.165 165.846 273.397 151.627 272.137 140.518C273.823 131.768 275.091 119.295 275.091 119.295L279.225 140.828L287.827 182.392C291.625 184.024 294.997 182.898 296.093 181.421C295.21 158.5 295.586 147.481 292.042 136.877C293.139 108.439 293.474 95.591 286.525 85.8203L286.615 82.1309L263.321 83.0859Z" fill="#37474F"></path>
  <path opacity="0.2" d="M274.117 114.496C271.548 114.034 269.129 112.956 267.07 111.353C267.465 112.494 268.147 113.514 269.049 114.317C269.952 115.12 271.046 115.679 272.227 115.941L274.396 124.92L275.051 119.369L274.117 114.496Z" fill="black"></path>
  <path d="M270.05 60.7777L266.612 60.7124C265.087 60.7132 263.593 61.1515 262.311 61.975C261.028 62.7984 260.009 63.9724 259.377 65.3569L253.001 79.3068C247.206 80.9393 243.179 84.0166 237.875 84.4084C236.844 84.4084 233.21 82.6045 231.786 81.878C231.716 81.8409 231.639 81.8202 231.56 81.8175C231.481 81.8149 231.403 81.8303 231.331 81.8626C231.259 81.895 231.195 81.9433 231.145 82.004C231.095 82.0647 231.059 82.1361 231.041 82.2127V82.2127C230.974 82.4656 230.984 82.7328 231.07 82.98C231.156 83.2273 231.314 83.4432 231.524 83.6003L233.218 84.8737C229.805 85.592 227.129 83.6248 225.95 85.1512C224.772 86.6776 225.598 89.0856 229.273 90.3508C232.948 91.616 237.638 90.963 242.279 89.91C246.92 88.857 257.249 85.8287 257.249 85.8287C266.219 77.1274 270.05 60.7777 270.05 60.7777Z" fill="#FFA8A7"></path>
  <path d="M270.05 60.7778C262.855 59.6677 260.154 62.8756 258.959 65.3979C257.764 67.9201 252.829 78.9396 252.829 78.9396C249.667 79.9619 246.619 81.3077 243.735 82.9556C246.33 85.9349 245.642 88.4327 245.078 89.2326C248.945 88.7754 252.774 88.0416 256.536 87.0369C257.485 86.7617 258.337 86.2239 258.992 85.486C268.167 75.0134 270.18 61.692 270.05 60.7778Z" fill="#455A64"></path>
  <path opacity="0.2" d="M270.05 60.7778C262.855 59.6677 260.154 62.8756 258.959 65.3979C257.764 67.9201 252.829 78.9396 252.829 78.9396C249.667 79.9619 246.619 81.3077 243.735 82.9556C246.33 85.9349 245.642 88.4327 245.078 89.2326C248.945 88.7754 252.774 88.0416 256.536 87.0369C257.485 86.7617 258.337 86.2239 258.992 85.486C268.167 75.0134 270.18 61.692 270.05 60.7778Z" fill="white"></path>
  <path d="M271.843 60.4839L269.387 60.6635C268.908 60.6995 268.444 60.843 268.029 61.0833C267.613 61.3236 267.258 61.6544 266.989 62.0511L261.26 70.5484C260.415 71.7946 260.003 73.2822 260.085 74.7841C260.168 76.286 260.742 77.7196 261.718 78.866C262.082 79.2925 262.352 79.7903 262.512 80.3274C262.671 80.8644 262.716 81.4288 262.643 81.9841L259.696 104.448C271.008 112.822 288.343 109.402 293.459 106.668C293.364 100.304 291.634 94.0699 288.433 88.5632C287.75 87.3719 287.31 86.0572 287.14 84.6952C286.97 83.3333 287.073 81.9512 287.443 80.6292L289.08 74.7929L284.169 60.9165L271.843 60.4839Z" fill="#455A64"></path>
  <path opacity="0.3" d="M271.843 60.4839L269.387 60.6635C268.908 60.6995 268.444 60.843 268.029 61.0833C267.613 61.3236 267.258 61.6544 266.989 62.0511L261.26 70.5484C260.415 71.7946 260.003 73.2822 260.085 74.7841C260.168 76.286 260.742 77.7196 261.718 78.866C262.082 79.2925 262.352 79.7903 262.512 80.3274C262.671 80.8644 262.716 81.4288 262.643 81.9841L259.696 104.448C271.008 112.822 288.343 109.402 293.459 106.668C293.364 100.304 291.634 94.0699 288.433 88.5632C287.75 87.3719 287.31 86.0572 287.14 84.6952C286.97 83.3333 287.073 81.9512 287.443 80.6292L289.08 74.7929L284.169 60.9165L271.843 60.4839Z" fill="white"></path>
  <path d="M264.436 46.991C263.145 45.6829 262.345 43.9723 262.169 42.1458C261.994 40.3194 262.453 38.4882 263.47 36.9592C262.924 36.7439 262.463 36.3577 262.156 35.8586C261.849 35.3595 261.714 34.7745 261.769 34.1917C261.824 33.609 262.068 33.0599 262.463 32.6272C262.859 32.1944 263.384 31.9014 263.961 31.7923C264.95 31.7411 265.94 31.8825 266.875 32.2086C268.531 32.5065 270.227 32.5065 271.884 32.2086C273.521 31.9718 275.199 31.6127 276.876 31.4903C278.546 31.3152 280.234 31.5564 281.787 32.1922C282.564 32.5181 283.256 33.0172 283.809 33.6511C284.362 34.285 284.763 35.0369 284.979 35.8491C286.273 35.4981 287.811 36.3307 288.638 37.3755C289.427 38.4656 289.848 39.7776 289.841 41.1221C289.898 42.4526 289.71 43.7831 289.645 45.1136C289.521 46.4457 289.691 47.7886 290.144 49.048C290.75 50.4928 291.945 51.6682 292.329 53.1783C292.505 53.8784 292.495 54.6122 292.3 55.3072C292.105 56.0023 291.732 56.6348 291.217 57.1422C290.703 57.6497 290.064 58.0148 289.365 58.2014C288.666 58.388 287.93 58.3897 287.23 58.2064C287.522 57.1433 287.654 56.0431 287.623 54.9414C287.492 56.4025 285.986 57.5534 284.636 58.0431C283.211 58.4493 281.722 58.5795 280.249 58.4268L275.059 58.2227L269.052 58.0023C267.973 58.0309 266.9 57.8478 265.892 57.4636C265.053 57.0083 264.35 56.3394 263.854 55.5251C263.358 54.7107 263.087 53.7799 263.069 52.8273C263.099 50.8065 263.565 48.816 264.436 46.991V46.991Z" fill="#263238"></path>
  <path d="M271.842 55.3982V66.1239L280.501 59.6264V51.7087L271.842 55.3982Z" fill="#FFA8A7"></path>
  <path d="M280.509 51.7087C279.175 55.6513 274.338 58.6469 271.85 59.2428V55.3982L280.509 51.7087Z" fill="#F28F8F"></path>
  <path d="M279.462 45.4483C279.347 46.1331 279.316 46.8295 279.372 47.5216C279.445 48.0461 279.686 48.533 280.06 48.9093C280.242 49.0868 280.464 49.2169 280.708 49.2881C280.953 49.3593 281.21 49.3693 281.459 49.3174C281.304 48.6266 281.426 47.9025 281.8 47.3007C282.174 46.699 282.77 46.2678 283.46 46.0998C284.15 45.9319 284.878 46.0406 285.488 46.4027C286.098 46.7648 286.541 47.3512 286.722 48.0359C286.84 48.5179 286.851 49.0198 286.753 49.5064C286.656 49.9929 286.452 50.4522 286.158 50.852C285.558 51.647 284.782 52.2925 283.89 52.7375C283.38 52.906 282.827 52.8904 282.327 52.6934C281.828 52.4965 281.413 52.1307 281.157 51.6601C278.513 54.9986 273.913 57.5045 269.608 57.1453C268.428 57.0782 267.292 56.676 266.334 55.9862C264.697 54.7292 264.582 52.8355 264.378 50.9581C264.073 48.5829 264.093 46.1776 264.435 43.8076C264.876 40.505 266.477 37.4652 268.953 35.2288C270.435 42.3139 276.966 44.9259 279.462 45.4483Z" fill="#FFA8A7"></path>
  <path d="M270.491 44.6399L267.536 48.2641L270.286 49.2109L270.491 44.6399Z" fill="#F28F8F"></path>
  <path d="M272.799 50.9744L270.507 51.7008C270.654 51.9706 270.886 52.1851 271.166 52.3118C271.447 52.4385 271.761 52.4704 272.062 52.4028C272.332 52.2866 272.552 52.0806 272.687 51.8201C272.821 51.5596 272.861 51.2607 272.799 50.9744V50.9744Z" fill="#F28F8F"></path>
  <path opacity="0.3" d="M272.799 50.9744L270.507 51.7008C270.654 51.9706 270.886 52.1851 271.166 52.3118C271.447 52.4385 271.761 52.4704 272.062 52.4028C272.332 52.2866 272.552 52.0806 272.687 51.8201C272.821 51.5596 272.861 51.2607 272.799 50.9744V50.9744Z" fill="black"></path>
  <path d="M271.311 52.3699C271.556 52.4425 271.818 52.4425 272.064 52.3699C272.275 52.2869 272.458 52.1436 272.589 51.9579C272.72 51.7721 272.793 51.5521 272.8 51.3251C272.471 51.2733 272.133 51.3481 271.857 51.5344C271.581 51.7208 271.385 52.0048 271.311 52.3291V52.3699Z" fill="#F28F8F"></path>
  <path d="M274.551 45.3911C274.551 45.6075 274.465 45.8152 274.311 45.9682C274.158 46.1213 273.95 46.2073 273.733 46.2073C273.625 46.2025 273.52 46.1766 273.422 46.1311C273.325 46.0857 273.237 46.0215 273.165 45.9423C273.092 45.8631 273.036 45.7704 272.999 45.6695C272.963 45.5686 272.946 45.4615 272.951 45.3543C272.956 45.2471 272.982 45.1419 273.027 45.0448C273.073 44.9476 273.137 44.8603 273.217 44.7879C273.296 44.7155 273.389 44.6594 273.49 44.6229C273.591 44.5863 273.699 44.57 273.806 44.5748C274.01 44.5932 274.2 44.6872 274.338 44.8384C274.476 44.9895 274.552 45.1867 274.551 45.3911V45.3911Z" fill="#263238"></path>
  <path d="M267.693 44.82C267.693 45.0365 267.606 45.2441 267.453 45.3972C267.299 45.5503 267.091 45.6363 266.874 45.6363C266.763 45.6364 266.653 45.614 266.551 45.5705C266.449 45.5269 266.357 45.4631 266.28 45.3829C266.204 45.3028 266.145 45.2079 266.106 45.1041C266.067 45.0003 266.05 44.8898 266.056 44.7792C266.061 44.672 266.087 44.5668 266.133 44.4698C266.179 44.3727 266.244 44.2857 266.324 44.2137C266.404 44.1416 266.497 44.086 266.599 44.05C266.7 44.014 266.808 43.9983 266.915 44.0038C267.125 44.0142 267.323 44.1048 267.468 44.2568C267.612 44.4088 267.693 44.6104 267.693 44.82Z" fill="#263238"></path>
  <path d="M267.045 41.5385L265.17 42.7057C265.104 42.4775 265.108 42.2344 265.182 42.0085C265.257 41.7826 265.398 41.5846 265.588 41.4405C265.816 41.3197 266.073 41.2649 266.33 41.2822C266.588 41.2995 266.835 41.3883 267.045 41.5385V41.5385Z" fill="#263238"></path>
  <path d="M274.061 41.7586L275.82 43.0973C275.909 42.876 275.927 42.633 275.873 42.401C275.819 42.169 275.695 41.9591 275.517 41.7994C275.302 41.6589 275.052 41.5808 274.795 41.5735C274.538 41.5663 274.283 41.6304 274.061 41.7586V41.7586Z" fill="#263238"></path>
  <path d="M271.842 59.6267C270.439 61.1388 269.271 62.8532 268.38 64.712C268.281 64.9451 268.25 65.2009 268.289 65.4508C268.328 65.7008 268.435 65.935 268.6 66.1273C268.765 66.3196 268.98 66.4624 269.222 66.5397C269.463 66.6169 269.722 66.6257 269.968 66.5649L271.842 66.1241V59.6267Z" fill="#E0E0E0"></path>
  <path d="M271.842 66.1238L280.501 59.5938C280.649 63.675 278.66 67.2829 277.424 69.1195C277.314 69.2852 277.168 69.4249 276.998 69.5287C276.828 69.6326 276.638 69.6981 276.44 69.7206C276.242 69.7432 276.041 69.7222 275.852 69.6593C275.663 69.5963 275.49 69.4929 275.345 69.3562L271.842 66.1238Z" fill="#E0E0E0"></path>
  <path d="M284.078 60.8999C283.26 68.6299 285.985 72.4255 293.082 85.8529C293.082 85.8529 291.445 95.7378 288.523 101.305C285.625 102.48 284.168 104.48 282.499 105.337C282.432 105.37 282.373 105.417 282.326 105.474C282.278 105.531 282.242 105.597 282.221 105.668C282.199 105.739 282.193 105.813 282.201 105.887C282.209 105.961 282.233 106.032 282.269 106.096C282.949 107.174 284.725 106.349 286.362 105.41C284.283 108.773 283.694 109.329 282.646 110.373C281.598 111.418 282.319 113.124 285.175 113.124C288.032 113.124 289.636 110.904 290.16 110.145C290.683 109.386 294.252 102.26 294.252 102.26L300.702 89.3302C301.149 88.4312 301.396 87.4463 301.426 86.4431C301.455 85.4399 301.267 84.4422 300.873 83.5184L293.507 66.2138C292.833 64.6382 291.709 63.2948 290.276 62.3502C288.843 61.4056 287.163 60.9013 285.445 60.8999H284.078Z" fill="#FFA8A7"></path>
  <path d="M284.078 60.8999C281.5 69.6421 291.534 83.5919 292.795 85.8285C291.976 87.714 290.83 95.3787 290.83 95.3787C294.923 95.8766 296.38 97.9989 296.38 97.9989L300.628 90.4893C301.295 89.3083 301.679 87.9893 301.75 86.6355C301.821 85.2817 301.577 83.9299 301.037 82.6859C298.999 77.9761 295.676 70.2951 293.998 66.3607C291.469 60.4102 286.288 60.8428 284.078 60.8999Z" fill="#455A64"></path>
  <path opacity="0.2" d="M284.078 60.8999C281.5 69.6421 291.534 83.5919 292.795 85.8285C291.976 87.714 290.83 95.3787 290.83 95.3787C294.923 95.8766 296.38 97.9989 296.38 97.9989L300.628 90.4893C301.295 89.3083 301.679 87.9893 301.75 86.6355C301.821 85.2817 301.577 83.9299 301.037 82.6859C298.999 77.9761 295.676 70.2951 293.998 66.3607C291.469 60.4102 286.288 60.8428 284.078 60.8999Z" fill="white"></path>
  <path d="M151.761 108.48L149.962 112.281L154.261 117.002L153.949 128.277L140.082 116.265C139.46 115.726 139.032 114.998 138.866 114.193C138.699 113.388 138.802 112.551 139.16 111.81L143.391 103.037L151.761 108.48Z" fill="#FFA8A7"></path>
  <path d="M147.484 115.641C148.574 114.735 149.425 113.576 149.962 112.266L151.037 113.444C150.186 114.611 148.911 115.4 147.484 115.641Z" fill="#F28F8F"></path>
  <path d="M153.107 114.988C153.107 122.305 153.107 127.92 153.107 127.92C149.694 125.283 137.164 117.123 138.604 112.606C150.206 87.338 154.557 84.6309 160.681 84.6309L150.889 112.606L153.107 114.988Z" fill="#DAE8FB"></path>
  <path d="M173.609 227.749C174.127 229.383 175.896 230.318 177.642 230.455C179.387 230.592 181.042 230.105 182.734 229.801C186.546 229.117 190.174 229.801 193.948 229.71C195.187 229.717 196.422 229.582 197.63 229.307C198.849 229.031 199.953 228.382 200.786 227.452C201.262 226.89 201.576 226.21 201.693 225.483C201.763 226.025 201.718 226.576 201.562 227.099C201.406 227.623 201.141 228.108 200.786 228.524C199.948 229.448 198.847 230.092 197.63 230.372C196.423 230.65 195.187 230.785 193.948 230.775C190.174 230.866 186.523 230.182 182.734 230.866C181.042 231.177 179.349 231.626 177.642 231.52C175.934 231.413 174.127 230.448 173.609 228.813C173.448 228.248 173.404 227.655 173.479 227.072C173.496 227.302 173.54 227.529 173.609 227.749V227.749Z" fill="#263238"></path>
  <path d="M173.709 224.616C173.938 223.476 174.174 222.336 174.403 221.188C174.488 220.576 174.687 219.985 174.99 219.447C175.14 219.177 175.362 218.953 175.631 218.799C175.899 218.645 176.205 218.566 176.514 218.572C178.588 218.299 181.508 217.546 183.23 218.732C185.955 220.588 189.203 221.528 192.5 221.416C194.216 221.347 195.931 220.998 197.631 221.21C199.331 221.423 201.099 222.358 201.61 223.993C201.757 224.486 201.785 225.007 201.694 225.513C201.577 226.24 201.263 226.921 200.787 227.482C199.953 228.413 198.85 229.061 197.631 229.338C196.423 229.612 195.188 229.748 193.949 229.74C190.175 229.824 186.524 229.147 182.735 229.832C181.043 230.136 179.35 230.592 177.643 230.485C175.935 230.379 174.128 229.414 173.61 227.779C173.543 227.571 173.5 227.357 173.48 227.14C173.421 226.292 173.498 225.44 173.709 224.616V224.616Z" fill="#455A64"></path>
  <path d="M183.733 215.144L183.878 219.614C183.895 220.072 183.732 220.518 183.425 220.859C183.118 221.199 182.689 221.407 182.231 221.439C180.728 221.549 179.219 221.534 177.718 221.393C177.114 221.332 176.552 221.058 176.133 220.621C175.713 220.183 175.464 219.61 175.431 219.006L175.256 215.706L183.733 215.144Z" fill="#FFA8A7"></path>
  <path opacity="0.4" d="M183.733 215.144L183.878 219.614C183.895 220.072 183.732 220.518 183.425 220.859C183.118 221.199 182.689 221.407 182.231 221.439C180.728 221.549 179.219 221.534 177.718 221.393C177.114 221.332 176.552 221.058 176.133 220.621C175.713 220.183 175.464 219.61 175.431 219.006L175.256 215.706L183.733 215.144Z" fill="black"></path>
  <path d="M154.475 212.756C154.491 213.418 154.701 214.059 155.077 214.604C155.608 215.248 156.361 215.672 157.189 215.79C158.177 215.959 159.194 215.847 160.121 215.466C161.049 215.086 161.85 214.452 162.433 213.638C162.998 212.825 163.318 211.867 163.851 211.031C164.66 209.918 165.655 208.953 166.794 208.18C167.936 207.408 168.938 206.449 169.759 205.344C170.154 204.803 170.412 204.175 170.511 203.513C170.611 202.851 170.549 202.176 170.331 201.543C170.436 201.694 170.528 201.855 170.606 202.022C170.857 202.684 170.94 203.398 170.847 204.1C170.754 204.802 170.488 205.469 170.072 206.043C169.228 207.181 168.197 208.169 167.023 208.963C165.86 209.762 164.846 210.757 164.027 211.905C163.478 212.764 163.15 213.752 162.578 214.589C161.99 215.423 161.176 216.075 160.232 216.468C159.287 216.86 158.251 216.979 157.242 216.809C156.394 216.686 155.623 216.249 155.085 215.585C154.602 214.821 154.382 213.922 154.46 213.023C154.46 212.947 154.467 212.863 154.475 212.756Z" fill="#263238"></path>
  <path d="M155.832 207.153C157.197 204.766 160.002 203.033 162.175 201.352C163.361 200.325 164.82 199.662 166.375 199.444C167.152 199.353 167.939 199.494 168.636 199.85C169.332 200.206 169.907 200.761 170.286 201.444C170.298 201.485 170.313 201.526 170.332 201.565C170.549 202.198 170.611 202.874 170.512 203.536C170.412 204.197 170.154 204.825 169.76 205.367C168.939 206.472 167.936 207.43 166.795 208.202C165.656 208.976 164.66 209.941 163.852 211.053C163.318 211.89 162.998 212.847 162.434 213.661C161.851 214.475 161.05 215.108 160.122 215.489C159.194 215.87 158.178 215.982 157.189 215.812C156.362 215.694 155.608 215.271 155.078 214.626C154.701 214.082 154.492 213.44 154.475 212.779C154.464 212.566 154.464 212.353 154.475 212.14C154.504 210.391 154.971 208.677 155.832 207.153Z" fill="#455A64"></path>
  <path d="M161.755 205.085V209.145C160.755 209.614 159.656 209.833 158.553 209.784C157.449 209.735 156.374 209.419 155.42 208.864L155.039 205.214L161.755 205.085Z" fill="#FFA8A7"></path>
  <path opacity="0.4" d="M161.755 205.085V209.145C160.755 209.614 159.656 209.833 158.553 209.784C157.449 209.735 156.374 209.419 155.42 208.864L155.039 205.214L161.755 205.085Z" fill="black"></path>
  <path d="M153.949 131.401C152.73 135.05 153.111 154.209 153.82 170.866C152.653 178.97 152.691 196.524 154.224 209.221C154.224 209.221 158.47 211.555 164.378 209.418L167.976 170.896L168.807 151.092C168.807 151.092 170.332 168.661 172.047 179.928C171.422 188.2 172.809 204.021 174.014 220.891C174.014 220.891 180.547 224.692 187.034 220.526C189.321 183.228 185.616 145.458 184.869 133.226L153.949 131.401Z" fill="#AFB1B3"></path>
  <path opacity="0.3" d="M168.304 163.15L168.982 147.002C164.797 147.002 160.917 143.885 157.959 140.92C160.795 145.96 166.329 148.241 166.329 148.241L168.304 163.15Z" fill="black"></path>
  <path d="M185.502 102.626V134.245C166.832 142.045 154.734 135.005 153.095 131.333C153.949 118.462 150.9 103.401 151.136 97.0077C151.372 90.6139 152.158 83.3991 162.106 84.8436L172.679 85.87L178.016 87.17L185.502 102.626Z" fill="#DAE8FB"></path>
  <path d="M195.412 100.877L198.979 104.572L207.495 93.2822C206.344 90.2809 205.641 87.128 205.406 83.9235C205.4 83.7869 205.421 83.6505 205.469 83.5225C205.518 83.3945 205.591 83.2776 205.686 83.1788C205.781 83.08 205.895 83.0015 206.021 82.9478C206.147 82.8942 206.283 82.8666 206.42 82.8667V82.8667C206.61 82.8666 206.797 82.9209 206.958 83.0233C207.119 83.1257 207.247 83.2719 207.327 83.4445L208.912 86.7592C209.139 86.6836 209.346 86.5573 209.516 86.39C209.687 86.2226 209.816 86.0187 209.896 85.7937L210.208 84.9194C210.415 84.3331 210.521 83.7162 210.521 83.0948V80.9129C210.524 80.6096 210.606 80.3124 210.759 80.0501C210.912 79.7879 211.13 79.5696 211.393 79.4165C211.655 79.2634 211.953 79.1807 212.257 79.1764C212.561 79.1722 212.861 79.2466 213.128 79.3924C214.122 79.925 215 80.6485 215.712 81.5211C216.395 82.353 216.767 83.3957 216.764 84.4709V87.4207C216.765 88.18 216.634 88.9338 216.376 89.6482L214.851 93.8752C214.709 94.2612 214.53 94.6329 214.317 94.9852L203.302 113.406C202.907 114.07 202.369 114.639 201.727 115.071C201.086 115.503 200.356 115.788 199.591 115.906C198.826 116.024 198.044 115.971 197.302 115.752C196.559 115.533 195.875 115.152 195.297 114.638L188.276 108.419L195.412 100.877Z" fill="#FFA8A7"></path>
  <path d="M201.16 109.111C200.809 107.438 200.061 105.874 198.979 104.549L199.963 103.249C200.702 104.641 201.747 107.301 201.16 109.111Z" fill="#F28F8F"></path>
  <path d="M206.606 93.3506L198.714 103.671L186.264 91.0629C184.033 88.873 181.133 87.4873 178.024 87.1248H177.848C173.602 96.3999 179.213 100.923 179.213 100.923C179.213 100.923 194.524 118.125 199.745 117.646C204.965 117.166 214.361 98.1781 214.361 98.1781C213.989 95.5863 209.637 93.3506 206.606 93.3506Z" fill="#DAE8FB"></path>
  <path d="M200.274 111.814C199.984 109.239 199.366 106.831 198.472 104.791L199.284 102.789C199.896 104.931 200.759 109.028 200.274 111.814Z" fill="#C6D8F1"></path>
  <path d="M177.764 64.127C177.956 63.9024 178.079 63.6268 178.117 63.3338C178.155 63.0408 178.106 62.7432 177.977 62.4772C178.241 62.5567 178.518 62.5782 178.791 62.5401C179.063 62.502 179.324 62.4053 179.555 62.2567C179.783 62.1192 179.968 61.9212 180.089 61.6849C180.21 61.4486 180.263 61.1833 180.241 60.9187C180.214 60.6535 180.1 60.4047 179.917 60.2108C179.734 60.017 179.491 59.889 179.227 59.8467C179.718 59.7343 180.149 59.441 180.432 59.0257C180.733 58.6247 180.869 58.1245 180.813 57.6268C180.725 57.1703 180.514 56.7464 180.202 56.4008C179.891 56.0551 179.49 55.8009 179.044 55.6653C178.148 55.4094 177.205 55.3575 176.285 55.5133C176.432 55.0133 176.397 54.4772 176.185 54.0009C175.972 53.5246 175.597 53.1391 175.126 52.9132C174.703 52.767 174.25 52.7279 173.809 52.7996C173.367 52.8712 172.95 53.0514 172.595 53.3238C171.891 53.8743 171.285 54.5401 170.804 55.2928C169.796 54.7482 168.682 54.4292 167.538 54.358C166.395 54.2867 165.249 54.4651 164.182 54.8805C163.114 55.2959 162.15 55.9384 161.357 56.7633C160.564 57.5882 159.961 58.5755 159.59 59.6567C158.752 59.9326 157.995 60.4087 157.383 61.0434C156.772 61.6781 156.326 62.4522 156.083 63.2983C155.667 64.9978 155.784 66.7837 156.419 68.4148C157.043 70.0341 157.846 71.5793 158.812 73.0219L160.139 75.1126C160.695 75.9869 162.113 78.1536 162.662 79.0355C163.904 79.609 165.269 79.8648 166.635 79.7798C168 79.6949 169.323 79.2718 170.484 78.549C172.758 77.0418 174.512 74.8732 175.507 72.3377C176.534 69.6832 177.29 66.9324 177.764 64.127V64.127Z" fill="#263238"></path>
  <path d="M165.993 79.9247C164.808 79.9446 163.635 79.684 162.571 79.1645V79.1645L161.328 77.2335C160.832 76.4732 160.329 75.7129 160.047 75.2416L159.979 75.1428L158.706 73.0825C157.732 71.6338 156.924 70.0808 156.297 68.4525C155.67 66.7951 155.563 64.9867 155.992 63.2676C156.234 62.4099 156.682 61.624 157.297 60.9776C157.912 60.3312 158.675 59.8438 159.521 59.5576C159.925 58.4825 160.546 57.5017 161.346 56.6764C162.146 55.8511 163.108 55.1989 164.171 54.7603C165.24 54.3607 166.381 54.188 167.52 54.2535C168.66 54.319 169.773 54.6211 170.788 55.1405C171.263 54.4074 171.858 53.7597 172.549 53.2246C172.92 52.9405 173.356 52.7528 173.818 52.6785C174.28 52.6042 174.753 52.6456 175.195 52.7989C175.663 53.0272 176.043 53.4039 176.275 53.8701C176.507 54.3363 176.577 54.8658 176.475 55.3762C177.354 55.2426 178.252 55.3022 179.105 55.551C179.573 55.6916 179.993 55.9584 180.319 56.322C180.644 56.6856 180.863 57.1317 180.95 57.6113C180.988 57.8788 180.971 58.1511 180.902 58.4122C180.832 58.6733 180.711 58.9179 180.546 59.1318C180.317 59.4553 180.01 59.7166 179.654 59.8921C179.858 59.9923 180.035 60.1411 180.168 60.3254C180.301 60.5097 180.386 60.7238 180.416 60.9488C180.435 61.2383 180.374 61.5274 180.24 61.7848C180.105 62.0421 179.903 62.2578 179.654 62.4085C179.222 62.6756 178.708 62.7781 178.206 62.6974C178.297 62.9541 178.318 63.2307 178.266 63.4982C178.214 63.7657 178.09 64.0143 177.908 64.2179C177.426 67.0199 176.66 69.7658 175.621 72.4134C174.622 74.9761 172.851 77.1672 170.552 78.6855C169.177 79.512 167.599 79.9411 165.993 79.9247V79.9247ZM162.708 78.944C163.928 79.5044 165.268 79.7527 166.609 79.6664C167.949 79.5801 169.247 79.162 170.384 78.4498C172.63 76.9469 174.366 74.7996 175.362 72.2918C176.398 69.6458 177.164 66.9027 177.649 64.1039V64.0659C177.83 63.8603 177.944 63.6057 177.978 63.3347C178.012 63.0637 177.964 62.7888 177.84 62.5453L177.718 62.2869L177.992 62.3781C178.238 62.4518 178.497 62.4717 178.75 62.4362C179.004 62.4008 179.248 62.3109 179.464 62.1728C179.673 62.0458 179.843 61.8635 179.954 61.6461C180.066 61.4287 180.115 61.1847 180.096 60.9412C180.067 60.7039 179.963 60.482 179.798 60.3082C179.634 60.1344 179.418 60.0179 179.182 59.9757L178.305 59.8769L179.174 59.7476C179.633 59.6462 180.036 59.3744 180.302 58.9874C180.446 58.8026 180.552 58.5912 180.613 58.3655C180.675 58.1397 180.691 57.9041 180.66 57.6721C180.578 57.2384 180.377 56.8358 180.079 56.5085C179.782 56.1813 179.4 55.942 178.976 55.8171C178.096 55.5694 177.171 55.5201 176.269 55.6727H176.079L176.147 55.4902C176.277 55.0174 176.239 54.5144 176.039 54.0668C175.838 53.6191 175.489 53.2544 175.05 53.0346C174.645 52.8991 174.212 52.865 173.791 52.9353C173.37 53.0056 172.972 53.178 172.633 53.4375C171.938 53.9796 171.34 54.6351 170.865 55.3762L170.811 55.4598L170.72 55.4142C169.725 54.8916 168.631 54.5842 167.509 54.5122C166.388 54.4401 165.263 54.605 164.209 54.996C163.165 55.4224 162.222 56.062 161.441 56.8739C160.66 57.6857 160.058 58.6517 159.674 59.7096V59.7704H159.613C158.797 60.0441 158.059 60.5107 157.463 61.1302C156.867 61.7498 156.43 62.504 156.19 63.3284C155.775 65.0024 155.879 66.7624 156.487 68.3765C157.114 69.9804 157.917 71.5102 158.881 72.938C159.293 73.5994 159.712 74.2609 160.131 74.9223L160.2 75.0287L161.48 77.013C161.961 77.7732 162.433 78.5031 162.708 78.944Z" fill="#272525"></path>
  <path d="M178.961 69.5474L180.638 72.4439L178.984 73.0521C179.037 71.8843 179.03 70.7144 178.961 69.5474V69.5474Z" fill="#F28F8F"></path>
  <path d="M177.764 64.127C178.381 65.8792 178.786 67.6991 178.968 69.5476C179.029 70.715 179.029 71.8849 178.968 73.0523C178.896 74.6959 178.705 76.3322 178.397 77.9484C178.283 78.8343 177.95 79.6781 177.428 80.404C176.732 81.1467 175.771 81.5864 174.753 81.628C173.743 81.6644 172.733 81.5673 171.749 81.3391V86.0907C168.136 86.9422 165.147 87.3147 162.312 85.1404L162.609 79.0583C164.349 79.2951 166.12 79.0148 167.701 78.2525C170.194 76.9068 170.895 74.7629 170.545 73.5617C170.323 73.8548 170.02 74.0761 169.673 74.1979C169.325 74.3196 168.95 74.3363 168.593 74.2459C168.25 74.1539 167.929 73.9932 167.65 73.7737C167.37 73.5541 167.139 73.2802 166.969 72.9687C166.64 72.3396 166.435 71.6529 166.367 70.9464C166.188 70.0933 166.318 69.2044 166.733 68.4376C167.052 68.0121 167.494 67.6933 167.999 67.5236C168.504 67.3539 169.049 67.3412 169.561 67.4873C170.588 67.8088 171.446 68.5221 171.947 69.4715C172.106 69.7668 172.246 70.0715 172.367 70.3838C172.411 70.5031 172.495 70.6038 172.605 70.6693C172.714 70.7349 172.843 70.7614 172.969 70.7447C173.096 70.7279 173.213 70.6688 173.302 70.577C173.39 70.4852 173.445 70.3662 173.457 70.2394C173.588 68.876 173.34 67.5029 172.74 66.2709C173.155 66.4754 173.612 66.5796 174.074 66.575C174.318 66.576 174.559 66.5234 174.781 66.4209C175.002 66.3184 175.198 66.1685 175.355 65.982C175.506 65.7921 175.592 65.5589 175.6 65.3167C175.608 65.0745 175.538 64.836 175.401 64.6363C176.613 65.2141 177.764 64.127 177.764 64.127Z" fill="#FFA8A7"></path>
</svg>
